<svg width="42" height="42" viewBox="0 0 42 42" fill="none" xmlns="http://www.w3.org/2000/svg">
<path fill-rule="evenodd" clip-rule="evenodd" d="M8.84828 0.241987L8.55361 0.49524L8.52064 2.3428L8.48756 4.19036H6.71495C5.00756 4.19036 4.93184 4.19939 4.6565 4.43636C4.45225 4.6121 4.37066 4.78174 4.37066 5.03068C4.37066 5.27963 4.45225 5.44927 4.6565 5.625C4.93184 5.86197 5.00756 5.87101 6.71495 5.87101H8.48756L8.52064 7.71857L8.55361 9.56613L8.84828 9.81938C9.20973 10.1301 9.54073 10.1412 9.90459 9.85488L10.1813 9.63724V7.75407V5.87101H12.0048C13.6907 5.87101 13.8493 5.85452 14.1051 5.65326C14.3186 5.4854 14.3818 5.34297 14.3818 5.03068C14.3818 4.7184 14.3186 4.57596 14.1051 4.40811C13.8493 4.20685 13.6907 4.19036 12.0048 4.19036H10.1813V2.3073V0.424128L9.90459 0.206484C9.54073 -0.0798568 9.20973 -0.0687228 8.84828 0.241987ZM21.7657 9.96833C21.3981 10.1165 21.3126 10.4123 21.3126 11.5363V12.5936H20.2052C19.1694 12.5936 19.0811 12.6103 18.8401 12.8515C18.5584 13.1331 18.5194 13.3911 18.6988 13.7851C18.8735 14.1684 19.2242 14.2743 20.3199 14.2743H21.3126V15.3589C21.3126 16.3568 21.332 16.4617 21.5556 16.6719C21.7951 16.8969 22.1827 16.9628 22.5155 16.835C22.8449 16.7086 22.9928 16.2127 22.9928 15.2344V14.2934L24.1049 14.2576C25.1249 14.2247 25.2335 14.2011 25.4175 13.9737C25.6969 13.6285 25.6732 13.1644 25.3603 12.8515C25.1212 12.6122 25.0271 12.5936 24.0572 12.5936H23.0119L22.9761 11.4814C22.9416 10.413 22.9287 10.3592 22.6456 10.1159C22.3352 9.849 22.1422 9.81665 21.7657 9.96833ZM33.142 12.8299C32.9647 12.9919 32.7192 13.5536 32.3612 14.6158C31.7707 16.3689 31.3799 17.0847 30.5646 17.9075C29.7537 18.7258 29.0331 19.121 27.2514 19.7246C26.388 20.017 25.5886 20.3494 25.4749 20.4631C25.2075 20.7307 25.2075 21.263 25.4749 21.5306C25.5886 21.6443 26.388 21.9767 27.2514 22.2691C29.0331 22.8727 29.7537 23.2679 30.5646 24.0862C31.3799 24.909 31.7707 25.6248 32.3612 27.3779C32.9068 28.9966 33.163 29.4001 33.6458 29.4001C34.1306 29.4001 34.3257 29.0853 34.9113 27.3584C35.5664 25.4267 36.095 24.5432 37.0928 23.7127C37.895 23.0448 38.3751 22.812 40.1888 22.2107C41.7531 21.6921 42 21.5267 42 20.9969C42 20.467 41.7531 20.3016 40.1888 19.783C38.3751 19.1818 37.895 18.9489 37.0928 18.281C36.095 17.4505 35.5664 16.567 34.9113 14.6353C34.3257 12.9084 34.1306 12.5936 33.6458 12.5936C33.511 12.5936 33.2843 12.6999 33.142 12.8299ZM35.3293 18.8853C36.0881 19.6877 37.3139 20.5745 37.959 20.7874C38.1601 20.8538 38.3246 20.948 38.3246 20.9969C38.3246 21.0457 38.1601 21.1399 37.959 21.2063C36.69 21.6252 34.8846 23.3229 34.1031 24.8323L33.6144 25.7762L33.3926 25.2589C32.7372 23.7306 31.3566 22.2698 29.8152 21.4735L28.8727 20.9866L29.8043 20.5201C31.3267 19.7578 32.7318 18.2755 33.3926 16.7348L33.6144 16.2175L34.1031 17.1614C34.4342 17.8009 34.8297 18.3569 35.3293 18.8853ZM10.7805 19.5708C10.6704 19.6543 10.3064 20.56 9.90564 21.7472C8.87988 24.7859 8.1659 25.988 6.63777 27.2488C5.65254 28.0616 4.63812 28.5517 2.3204 29.3345C1.13355 29.7353 0.228138 30.0995 0.144653 30.2095C-0.0794431 30.5051 -0.0375432 31.0142 0.231393 31.2612C0.361398 31.3806 1.29464 31.7502 2.30538 32.0823C5.02121 32.9747 6.24996 33.6481 7.40352 34.8758C8.51686 36.0608 9.06218 37.1075 9.91373 39.6941C10.2465 40.7051 10.6166 41.6386 10.736 41.7686C10.9837 42.0384 11.492 42.0795 11.7896 41.8538C11.9026 41.768 12.2504 40.9018 12.6443 39.7245C13.0096 38.633 13.5026 37.3535 13.7401 36.8811C14.239 35.8887 14.2711 35.5823 13.914 35.2251C13.6025 34.9135 13.2409 34.8957 12.8864 35.1746C12.5643 35.4281 11.8653 36.7629 11.551 37.7246C11.4236 38.1145 11.3029 38.4336 11.2828 38.4336C11.2627 38.4336 11.1719 38.1775 11.0809 37.8646C10.8056 36.917 9.91856 35.2807 9.18536 34.3674C8.80449 33.893 8.10489 33.1932 7.63066 32.8122C6.71044 32.0731 5.08422 31.1934 4.10813 30.9069L3.51302 30.7322L3.82806 30.5961C4.00133 30.5212 4.20127 30.4579 4.27247 30.4552C4.52807 30.4459 6.21772 29.6084 6.9108 29.1476C7.81674 28.5452 9.11648 27.245 9.71872 26.3389C10.252 25.5365 10.9448 24.1039 11.1212 23.4391C11.1863 23.1936 11.2552 22.9926 11.2744 22.9926C11.2935 22.9926 11.4389 23.359 11.5975 23.8067C12.1646 25.4076 12.8429 26.497 14.0492 27.7441C15.2628 28.9987 16.5302 29.8118 18.1885 30.3995C18.636 30.5581 19.0023 30.7017 19.0023 30.7186C19.0023 30.7355 18.8252 30.8061 18.6085 30.8755C18.036 31.0588 17.7422 31.3663 17.7422 31.7818C17.7422 32.316 18.1088 32.6152 18.6955 32.5598C19.1657 32.5155 22.2894 31.3935 22.419 31.2223C22.6308 30.9427 22.6082 30.381 22.3758 30.1485C22.2675 30.0401 21.287 29.6554 20.1968 29.2933C19.1067 28.9313 17.9022 28.479 17.5202 28.2881C16.0055 27.5316 14.462 25.9855 13.7026 24.464C13.5149 24.0881 13.0653 22.8882 12.7034 21.7978C12.3414 20.7074 11.9567 19.7266 11.8484 19.6182C11.6179 19.3876 11.0549 19.3626 10.7805 19.5708ZM15.0119 32.7614C14.8819 32.8914 14.8018 33.1115 14.8018 33.3391C14.8018 33.8117 15.1076 34.1269 15.566 34.1269C16.2539 34.1269 16.6306 33.5635 16.3306 32.9834C16.2449 32.8175 16.0983 32.6525 16.0048 32.6166C15.6713 32.4886 15.2185 32.5547 15.0119 32.7614ZM31.051 32.9977C30.7696 33.2116 30.6587 33.666 30.6587 34.6064V35.4925H29.6038C28.6238 35.4925 28.5306 35.5107 28.2912 35.7503C28.1286 35.9128 28.0334 36.1282 28.0334 36.3328C28.0334 36.5374 28.1286 36.7527 28.2912 36.9152C28.5302 37.1544 28.6245 37.1731 29.5919 37.1731H30.6348L30.6757 38.2757C30.7114 39.2412 30.7453 39.4072 30.9478 39.6097C31.2327 39.8947 31.842 39.9209 32.1041 39.6593C32.2466 39.5172 32.2978 39.2314 32.3389 38.3516L32.3914 37.2256L33.5299 37.1731C34.5671 37.1253 34.6863 37.0985 34.8688 36.8726C35.148 36.5272 35.1242 36.0631 34.8114 35.7503C34.5704 35.5092 34.4821 35.4925 33.4462 35.4925H32.3389V34.3895C32.3389 33.4266 32.3122 33.2599 32.1289 33.0765C31.8899 32.8376 31.3171 32.7957 31.051 32.9977Z" fill="#FFB703"/>
</svg>
