<svg width="42" height="46" viewBox="0 0 42 46" fill="none" xmlns="http://www.w3.org/2000/svg">
<path fill-rule="evenodd" clip-rule="evenodd" d="M19.6952 0.0837343C18.7684 0.267952 14.3201 1.3463 13.8525 1.50014C12.3639 1.98953 11.1746 3.26791 10.7767 4.80634C10.6604 5.25565 10.6339 5.90976 10.6339 8.31869V11.2789L10.3304 11.6756C9.88893 12.2525 9.8223 12.5456 9.82329 13.9053C9.8241 14.9992 9.84646 15.1753 10.0364 15.5819C10.3617 16.278 11.1893 16.8798 11.8214 16.8798C11.9127 16.8798 11.9849 17.0804 12.0653 17.5568C12.4105 19.6047 13.5585 21.5288 15.1682 22.7571L15.8633 23.2875V24.2959C15.8633 25.637 15.5934 26.4052 15.1223 26.4052C14.8013 26.4052 5.99454 29.1966 5.32373 29.511C3.4598 30.3846 1.91522 31.8935 0.996193 33.7389C0.369833 34.9965 0.104034 36.0374 0.0235187 37.5481C-0.0231855 38.4247 -0.0128168 38.5092 0.170844 38.7388C0.42357 39.0549 0.892686 39.0787 1.16326 38.7892C1.30752 38.6349 1.34711 38.4719 1.34711 38.0319C1.34711 34.912 3.04081 32.1602 5.81015 30.7807C6.15728 30.6077 7.51513 30.1342 8.82763 29.7284C10.1401 29.3226 11.2605 28.9728 11.3173 28.9511C11.3741 28.9294 12.2786 29.8825 13.3273 31.0692C14.376 32.2561 15.3676 33.3286 15.5309 33.4527C16.2636 34.0097 17.2672 34.1322 18.2494 33.7845C18.5453 33.6798 18.8017 33.5942 18.8193 33.5942C18.863 33.5942 20.0252 36.0382 19.9921 36.0605C19.9776 36.0703 19.7768 36.1861 19.546 36.3178C19.0384 36.6073 18.6082 37.1282 18.3782 37.7314C18.2255 38.1319 18.2075 38.4441 18.2075 40.6928V43.2065L18.4706 43.5L18.7337 43.7935H20.0108H21.2878L21.5509 43.5C21.8043 43.2174 21.814 43.1736 21.814 42.3109V41.4152L22.252 41.194C22.8229 40.9057 23.4387 40.2143 23.6513 39.6232C23.8852 38.9722 23.8225 38.0326 23.5031 37.4077C23.2594 36.9307 22.7339 36.3971 22.2753 36.1606L22.0045 36.0211L22.3918 35.1895C22.8319 34.2446 23.1589 33.5942 23.194 33.5942C23.207 33.5942 23.4598 33.6798 23.7557 33.7845C24.7395 34.1328 25.7413 34.0098 26.4771 33.4505C26.6421 33.325 27.6322 32.2519 28.6773 31.0656C29.7747 29.82 30.6254 28.9273 30.6911 28.9524C30.7536 28.9763 31.8147 29.3069 33.049 29.687C34.2834 30.0671 35.4962 30.4617 35.7441 30.5638C36.7036 30.9589 37.4609 31.4804 38.3138 32.3332C39.2816 33.3011 39.8088 34.1352 40.2159 35.3427C40.6116 36.5165 40.6706 37.2718 40.6404 40.7831C40.6103 44.2822 40.6153 44.2494 40.0591 44.5124C39.836 44.618 39.3909 44.6472 38.0071 44.6472H36.24V41.3344C36.24 38.1191 36.2345 38.0147 36.0531 37.7849C35.819 37.4882 35.3364 37.4602 35.0679 37.7278C34.894 37.9012 34.8876 38.0273 34.8876 41.2774V44.6472H21.0025H7.11751V41.2774C7.11751 38.0273 7.11111 37.9012 6.93719 37.7278C6.66868 37.4602 6.18613 37.4882 5.95198 37.7849C5.77057 38.0147 5.76507 38.1191 5.76507 41.3344V44.6472H3.99798C1.404 44.6472 1.42032 44.66 1.34945 42.5804C1.32339 41.8143 1.27164 41.141 1.23458 41.084C1.12675 40.9187 0.687566 40.8014 0.472799 40.8806C0.0332562 41.0426 -0.0269724 41.2954 0.00918278 42.8262C0.0416413 44.2003 0.0507479 44.2575 0.311678 44.73C0.620305 45.2887 1.20501 45.7578 1.77024 45.9C2.29994 46.0333 39.7052 46.0333 40.2349 45.9C40.7989 45.7581 41.3846 45.2886 41.6949 44.73L41.9654 44.2428L41.9932 40.873C42.0211 37.5031 41.9712 36.6151 41.6925 35.5161C41.0694 33.0584 39.2236 30.7839 36.9277 29.6447C36.2334 29.3001 34.9415 28.8579 31.5347 27.7984C29.0708 27.0322 26.9774 26.4052 26.8828 26.4052C26.4117 26.4052 26.1418 25.637 26.1418 24.2959V23.2875L26.8369 22.7571C28.4466 21.5288 29.5946 19.6047 29.9398 17.5568C30.0202 17.0804 30.0924 16.8798 30.1837 16.8798C30.8158 16.8798 31.6434 16.278 31.9687 15.5819C32.1573 15.1783 32.181 14.9971 32.1814 13.9593C32.1818 12.5987 32.0978 12.2173 31.6783 11.6756L31.3712 11.2789V10.0805C31.3712 9.00191 31.3532 8.86415 31.1909 8.7024C30.9631 8.47532 30.5527 8.47173 30.2768 8.6944C30.0845 8.84933 30.0608 8.95006 30.0325 9.73105C30.0052 10.4857 29.9822 10.5902 29.8522 10.5504C26.493 9.52105 24.1769 9.15171 21.0803 9.15171C18.0249 9.15171 15.4811 9.52473 12.7705 10.3702C12.3836 10.4907 12.049 10.5895 12.0267 10.5895C12.0045 10.5895 11.9863 9.41833 11.9863 7.98692C11.9863 5.05733 12.0325 4.79188 12.6938 3.91599C13.3608 3.03256 13.7711 2.86083 17.1706 2.04138C20.8803 1.14716 20.8244 1.14689 24.785 2.0793C26.4903 2.4808 27.9055 2.86299 28.1773 2.99553C29.0758 3.4337 29.8618 4.53334 29.9816 5.51958C30.0666 6.21987 30.1852 6.51049 30.4314 6.62237C30.7501 6.76704 30.8612 6.75276 31.1444 6.5308C31.3847 6.34245 31.3913 6.31405 31.3495 5.65464C31.2273 3.72207 29.8562 2.02583 27.9636 1.46563C27.7239 1.39473 26.2928 1.05056 24.7836 0.700907C21.8645 0.0245153 20.702 -0.116478 19.6952 0.0837343ZM23.9276 10.6355C25.747 10.8477 28.4429 11.453 29.6775 11.9265L29.9222 12.0204L29.7932 12.4506C29.6446 12.9469 29.304 13.2856 28.9543 13.2847C28.8207 13.2845 28.154 13.1439 27.4725 12.9726C22.8949 11.821 18.3464 11.8657 14.0152 13.1049C13.6683 13.2041 13.2547 13.2854 13.0961 13.2854C12.7007 13.2854 12.3677 12.9709 12.2119 12.4506L12.0829 12.0204L12.3276 11.9265C13.5035 11.4755 16.2604 10.8466 17.9642 10.6408C19.3735 10.4706 22.4894 10.4679 23.9276 10.6355ZM24.14 13.6835C25.213 13.8286 26.7519 14.1515 27.8096 14.4533C28.9704 14.7845 29.769 14.6411 30.4555 13.9781L30.847 13.5999L30.815 14.35C30.7855 15.0407 30.7632 15.117 30.5311 15.316C30.3268 15.4911 30.1789 15.5319 29.7483 15.5319C28.934 15.5319 28.7925 15.7015 28.6622 16.8336C28.2968 20.0106 26.1297 22.4013 22.826 23.2725C21.8462 23.5309 20.1472 23.5316 19.1791 23.2742C15.8676 22.3932 13.7083 20.0104 13.3429 16.8336C13.2126 15.7015 13.0711 15.5319 12.2568 15.5319C11.8262 15.5319 11.6783 15.4911 11.474 15.316C11.2419 15.117 11.2195 15.0407 11.1901 14.35L11.1581 13.5999L11.5496 13.9776C12.3301 14.7303 12.9258 14.795 14.7245 14.3222C16.0119 13.9839 17.6068 13.6915 18.8837 13.56C19.9851 13.4465 22.893 13.5148 24.14 13.6835ZM18.1835 24.3861C19.1805 24.7123 19.8682 24.8176 21.0025 24.8176C22.299 24.8176 23.3424 24.6152 24.6193 24.1159C24.7456 24.0665 24.7704 24.1764 24.8079 24.9501C24.8443 25.7035 24.8939 25.9327 25.1287 26.4328L25.4064 27.0244L24.5795 27.8241C22.8629 29.4843 21.086 31.123 21.0025 31.123C20.9191 31.123 19.1422 29.4843 17.4256 27.8241L16.5987 27.0244L16.8764 26.4328C17.1112 25.9327 17.1608 25.7035 17.1972 24.9501C17.2347 24.1764 17.2594 24.0665 17.3858 24.1159C17.4658 24.1472 17.8248 24.2688 18.1835 24.3861ZM17.5266 29.775C18.6856 30.8624 19.625 31.7897 19.614 31.8357C19.5838 31.9626 17.579 32.6119 17.1925 32.6199C17.0061 32.6238 16.7304 32.576 16.5797 32.5139C16.3003 32.3985 12.8458 28.574 12.938 28.482C13.0313 28.3891 15.1001 27.7638 15.2581 27.7807C15.3468 27.7903 16.3676 28.6877 17.5266 29.775ZM27.9 28.0831C28.4951 28.2648 29.0124 28.4388 29.0497 28.4697C29.1607 28.5622 25.7332 32.3868 25.4254 32.5139C25.2747 32.576 24.999 32.6238 24.8126 32.6199C24.426 32.6119 22.4212 31.9626 22.3912 31.8357C22.3674 31.7348 26.5948 27.7532 26.726 27.753C26.7767 27.7529 27.3049 27.9014 27.9 28.0831ZM21.3723 32.9774C21.5408 33.0336 21.7112 33.1084 21.7508 33.1436C21.8283 33.2124 21.1101 34.8523 21.0025 34.8523C20.9081 34.8523 20.1742 33.2217 20.2391 33.1558C20.3058 33.0882 20.828 32.8916 20.9666 32.8821C21.0211 32.8783 21.2037 32.9212 21.3723 32.9774ZM21.6319 37.3909C22.1643 37.6621 22.3759 37.9748 22.4249 38.5631C22.4726 39.1363 22.3158 39.5005 21.8817 39.8245C21.5969 40.0372 21.4981 40.0775 20.9816 40.192C20.5935 40.278 20.4616 40.6434 20.4616 41.6323V42.4905H20.0108H19.5599L19.5614 40.4012C19.5628 38.4058 19.5719 38.2961 19.7643 37.9592C19.9847 37.5733 20.6002 37.1887 20.9976 37.1887C21.1281 37.1887 21.4135 37.2796 21.6319 37.3909Z" fill="#FFB703"/>
</svg>
