<svg width="61" height="45" viewBox="0 0 61 45" fill="none" xmlns="http://www.w3.org/2000/svg">
<path fill-rule="evenodd" clip-rule="evenodd" d="M22.3413 0.233757C20.1193 0.830854 19.3732 1.40364 16.1201 5.00885C15.516 5.6785 14.7677 6.39618 14.4572 6.60387C12.8613 7.6716 10.5002 7.73898 8.81952 6.76464C8.16559 6.38559 6.81877 5.08863 5.70594 3.7664C4.35281 2.15874 2.37601 0.68549 1.57185 0.68549C0.702165 0.68549 0.0035594 1.33987 0.0035594 2.15441C0.0035594 2.62587 0.387649 3.20095 0.936979 3.55196C1.90352 4.16964 2.80322 4.99826 4.13253 6.49509C4.84293 7.29507 5.79076 8.24511 6.23871 8.60635C9.20635 10.9992 13.2657 11.0933 16.3895 8.84184C16.8054 8.54209 17.9238 7.4373 18.8748 6.38679C20.807 4.25267 21.2395 3.86808 22.2417 3.39385C22.8786 3.09241 23.0574 3.06485 24.3728 3.06485C25.7919 3.06485 25.8191 3.07003 26.7131 3.51635C27.4472 3.88288 27.8272 4.18865 28.7317 5.14085C31.8852 8.46062 32.4097 8.93378 33.6012 9.5328C36.3301 10.905 39.4712 10.7385 41.9233 9.09202C42.4593 8.7321 43.2682 7.98037 44.1134 7.05657C46.4466 4.50633 47.1001 3.89901 47.9775 3.46568C48.7606 3.07893 48.8398 3.06485 50.225 3.06485C51.6467 3.06485 51.6697 3.0693 52.5746 3.52104C53.5698 4.01778 54.0022 4.41091 56.2634 6.8745C57.6852 8.42344 58.8882 9.38238 59.4096 9.38238C60.2105 9.38238 60.999 8.64859 61 7.90227C61.0007 7.34778 60.6941 6.91289 59.7564 6.1389C59.2668 5.73494 58.4686 4.93219 57.9823 4.35495C56.9236 3.09831 55.7895 1.9922 55.0065 1.45262C52.6558 -0.167557 49.4366 -0.459848 46.8734 0.714009C45.5684 1.31171 44.6588 2.07041 42.844 4.07493C40.9101 6.21098 40.4719 6.60038 39.4914 7.0538C38.5634 7.48291 37.0174 7.58038 35.9156 7.27919C34.7597 6.96307 33.9376 6.35081 32.3486 4.62221C29.9941 2.06079 29.2219 1.39558 27.8352 0.733744C26.3032 0.00259519 23.9858 -0.20823 22.3413 0.233757ZM23.7709 11.2734C22.392 11.3643 21.0795 11.8058 19.899 12.576C18.9528 13.1935 18.1905 13.9293 16.4992 15.8583C14.5243 18.1106 13.4936 18.6955 11.5 18.6955C9.59628 18.6955 8.44568 18.0861 6.73407 16.1713C4.31719 13.4674 2.65109 12.075 1.67406 11.9426C1.11509 11.8669 0.547409 12.1532 0.237063 12.6674C-0.269497 13.5065 0.0182129 14.1734 1.26984 15.0609C2.33788 15.8183 2.89508 16.3486 4.62884 18.2572C6.78673 20.6329 8.21098 21.4169 10.9053 21.7119C11.632 21.7916 13.2866 21.594 14.0424 21.3374C15.7466 20.7587 17.095 19.7143 19.0651 17.4466C21.0695 15.1394 21.9036 14.5579 23.5453 14.3228C25.0364 14.1093 26.4637 14.4647 27.6509 15.3449C27.9617 15.5754 28.9453 16.5714 29.8368 17.5583C32.0648 20.0252 33.3857 20.9778 35.2775 21.4824C36.3063 21.7568 38.399 21.7562 39.4371 21.4811C41.347 20.9751 42.5331 20.1341 44.6173 17.8082C46.4556 15.7567 47.1307 15.1364 47.9529 14.7436C49.2457 14.1258 51.1795 14.1167 52.4787 14.7223C53.3886 15.1464 54.1739 15.8379 55.6582 17.5218C56.4014 18.3649 57.4369 19.3965 57.9593 19.8141C58.7942 20.4815 58.9717 20.5734 59.4247 20.5734C60.1042 20.5734 60.5667 20.3172 60.8057 19.8085C61.1945 18.9808 60.9871 18.3818 60.0601 17.6547C59.6815 17.3578 58.7156 16.3903 57.9135 15.5049C54.9812 12.2677 53.2025 11.2846 50.2784 11.2846C48.7789 11.2846 47.8448 11.5012 46.5256 12.1551C45.3725 12.7267 44.4893 13.5124 42.4847 15.7494C40.3237 18.1609 39.4587 18.6682 37.4714 18.689C35.3209 18.7117 34.3778 18.1617 31.9298 15.4573C30.2225 13.5711 29.1552 12.6475 28.0524 12.102C26.8763 11.5204 25.1362 11.1837 23.7709 11.2734ZM23.2348 23.3411C20.9218 23.6279 19.442 24.5658 17.0842 27.2391C15.3676 29.1856 14.6067 29.8805 13.7602 30.2752C12.3965 30.9108 10.4755 30.8723 9.05779 30.1809C8.43936 29.8793 8.03144 29.5354 7.0325 28.4734C4.58536 25.8719 3.86364 25.1851 2.92784 24.5678C1.914 23.8991 1.45927 23.7985 0.86109 24.111C0.111495 24.5025 -0.160132 25.2395 0.159983 26.0134C0.291984 26.3326 0.587081 26.6166 1.27044 27.0823C2.2695 27.7634 2.83122 28.3008 4.73916 30.4015C6.93565 32.8199 8.73958 33.7103 11.4506 33.7143C12.9457 33.7165 13.7702 33.531 15.0741 32.899C16.3929 32.2597 17.2479 31.5162 19.1835 29.3264C21.3739 26.8484 22.3384 26.293 24.4262 26.3081C26.4744 26.3226 27.4326 26.9023 29.8519 29.5902C31.4286 31.3419 32.589 32.3428 33.6818 32.8936C35.8011 33.9619 38.797 33.9943 40.9178 32.9719C42.0937 32.405 43.0924 31.5503 44.6621 29.7669C46.9464 27.1719 47.6842 26.6344 49.3621 26.3428C50.4563 26.1528 51.7007 26.3412 52.6931 26.8472C53.4359 27.2259 53.7331 27.5064 56.7116 30.6391C57.3341 31.2937 58.1115 32.0088 58.4391 32.228C58.9552 32.5734 59.1111 32.6195 59.6062 32.5736C60.6235 32.4794 61.2019 31.6025 60.8855 30.6341C60.7898 30.3414 60.5107 30.0225 59.9846 29.6049C59.5654 29.2721 58.5904 28.2935 57.818 27.4303C56.1448 25.5601 55.1152 24.6987 53.8087 24.0756C52.5968 23.4978 51.721 23.3073 50.2784 23.3077C48.7675 23.308 47.9282 23.4968 46.6448 24.1252C45.3374 24.7653 44.5414 25.4572 42.5886 27.6511C40.5666 29.9229 39.8112 30.4402 38.1736 30.6747C36.6466 30.8934 35.0997 30.4766 33.908 29.5253C33.6683 29.3339 32.795 28.4267 31.9675 27.5091C31.1401 26.5916 30.118 25.5535 29.6963 25.2022C27.9278 23.7287 25.5749 23.051 23.2348 23.3411ZM22.6391 34.7123C21.6373 34.916 20.7643 35.2698 19.9242 35.8128C19.2355 36.2578 18.3877 37.0852 15.9676 39.6746C14.7952 40.929 14.4772 41.1977 13.7636 41.5366C12.9648 41.916 12.8691 41.9327 11.4939 41.9327C10.0796 41.9327 10.0448 41.9261 9.17049 41.4896C8.21849 41.0144 7.24944 40.1371 5.87165 38.5032C4.38271 36.7376 2.37803 35.221 1.5485 35.2325C0.908982 35.2414 0.373234 35.556 0.17285 36.0404C-0.201829 36.9463 0.0858815 37.538 1.31404 38.3868C2.37553 39.1206 2.87482 39.5953 4.33029 41.2545C6.80603 44.0771 8.94175 45.1237 11.9055 44.9667C13.2887 44.8934 14.108 44.6867 15.1832 44.1397C16.3225 43.5602 17.1736 42.8161 18.963 40.835C19.8903 39.8084 20.8876 38.7844 21.1791 38.5595C22.8345 37.2829 25.4739 37.2043 27.2591 38.3784C27.6454 38.6325 28.8085 39.7455 29.9442 40.9475C31.2598 42.34 32.2367 43.2623 32.7894 43.6334C35.1943 45.2483 38.4171 45.4483 41.0564 44.1465C42.1968 43.584 43.2045 42.6859 45.097 40.5451C45.8172 39.7304 46.7198 38.8299 47.1028 38.5441C48.7109 37.3441 51.0583 37.2019 52.8644 38.1948C53.5577 38.5759 54.2756 39.2527 56.0945 41.2402C58.2968 43.6466 59.2337 44.2249 60.1524 43.7451C60.6088 43.5068 60.9994 42.9044 61 42.4381C61.0007 41.8876 60.6895 41.4389 59.8214 40.7392C59.3702 40.3757 58.5172 39.5168 57.9258 38.8306C55.6738 36.2176 54.1656 35.167 52.0249 34.7205C49.6124 34.2171 47.1337 34.7776 45.1887 36.2664C44.781 36.5784 43.7833 37.5749 42.9712 38.4807C41.0415 40.6337 40.5304 41.0969 39.5983 41.5374C38.9753 41.8319 38.614 41.9159 37.7566 41.9652C35.7489 42.0808 34.5426 41.5163 32.7733 39.633C29.6845 36.345 29.0087 35.7652 27.5433 35.1461C26.1704 34.5662 24.2102 34.3928 22.6391 34.7123Z" fill="white"/>
</svg>
