<svg width="48" height="45" viewBox="0 0 48 45" fill="none" xmlns="http://www.w3.org/2000/svg">
<path fill-rule="evenodd" clip-rule="evenodd" d="M33.1095 0.085561C31.3979 0.370971 29.8609 1.92575 29.5769 3.65891C29.5253 3.9737 29.4829 5.82914 29.4826 7.78218L29.4821 11.3331L29.2112 11.2794C28.4079 11.12 27.4852 11.7836 27.2693 12.6758C26.8996 14.2044 27.9347 15.8644 29.4882 16.2342C29.6837 16.2807 29.829 16.4812 30.1905 17.2035C30.99 18.8009 32.381 19.9087 34.1429 20.3514C34.9819 20.5622 40.2543 20.5595 41.0736 20.3478C43.0639 19.8337 44.6503 18.4278 45.3443 16.5632C45.4063 16.397 45.5375 16.2805 45.709 16.2395C46.5674 16.0344 47.408 15.3293 47.7857 14.4974C48.0751 13.86 48.0707 12.7706 47.7766 12.2203C47.4737 11.6535 46.9345 11.3204 46.2928 11.3035L45.7845 11.2902L45.7322 7.37915C45.6828 3.68199 45.6687 3.43827 45.4734 2.92125C44.9154 1.44326 43.5631 0.329666 42.0226 0.0794559C41.3488 -0.0300529 33.7713 -0.0248063 33.1095 0.085561ZM22.2848 1.23645C19.5669 1.47617 17.1405 2.17252 14.7301 3.4045C13.5806 3.99201 13.1315 4.34343 13.1315 4.65545C13.1315 4.91034 13.5406 5.32825 13.7901 5.32825C13.8926 5.32825 14.5113 5.05333 15.1651 4.71727C17.237 3.65223 19.3415 2.99394 21.6324 2.69431C23.2383 2.48436 25.9447 2.55447 27.4064 2.84398C28.4441 3.04945 28.4597 3.04983 28.7048 2.86897C29.0602 2.60703 29.0958 2.07723 28.7747 1.82683C28.489 1.6038 27.1937 1.36094 25.5863 1.22882C24.2783 1.12141 23.5709 1.12303 22.2848 1.23645ZM41.7936 1.41731C42.852 1.61639 43.6064 2.19895 44.0616 3.1686C44.259 3.58898 44.292 3.80438 44.2927 4.6793L44.2937 5.69979L43.6445 5.39473C43.0915 5.13498 42.8883 5.09006 42.2739 5.09177C41.3682 5.09425 40.9977 5.25508 39.7124 6.20374C38.6293 7.00322 38.1256 7.19562 37.329 7.11406C36.6932 7.049 36.4868 6.94436 35.3971 6.13449C34.2133 5.2547 33.8357 5.09416 32.9445 5.09177C32.3278 5.09006 32.1275 5.1347 31.5632 5.39979C31.2001 5.57025 30.8801 5.70981 30.852 5.70981C30.7403 5.70981 30.9204 3.72587 31.0706 3.30176C31.3885 2.40451 32.3372 1.6204 33.3419 1.42466C33.9416 1.30771 41.1778 1.30151 41.7936 1.41731ZM9.1401 6.03433C8.16994 6.33949 7.0783 7.19848 6.79313 7.88119L6.67214 8.17099L5.06661 8.20438C3.47109 8.23748 3.45695 8.23967 2.80995 8.5557C2.05043 8.92668 1.51346 9.52593 1.23771 10.3105C1.08748 10.7381 1.06103 11.1198 1.06103 12.8641C1.06103 15.2282 1.10816 15.4455 1.74102 15.998L2.16709 16.3699V17.1449V17.9199H1.78862C1.10056 17.9199 0.513574 18.2825 0.16752 18.9215C-0.08447 19.3868 -0.0459983 20.5287 0.241386 21.1139C0.566569 21.7761 1.19866 22.3553 1.86009 22.5972C2.39609 22.7931 2.41495 22.8126 2.7609 23.5303C3.41184 24.8804 4.74961 26.036 6.21144 26.5108C6.90855 26.7372 7.00876 26.7435 9.90954 26.7435C12.7673 26.7435 12.9175 26.7345 13.5283 26.5251C14.3731 26.2355 15.1799 25.7463 15.8123 25.1401C16.4141 24.5634 17.0298 23.6716 17.1881 23.1477C17.2702 22.8757 17.3634 22.7651 17.5476 22.7214C18.4224 22.513 19.3404 21.7059 19.6164 20.9023C19.9218 20.0136 19.7381 18.8285 19.225 18.3766C18.9413 18.1268 18.3718 17.9199 17.9676 17.9199H17.6039L17.6231 16.3316L17.6423 14.7433L18.2107 14.2872C18.5234 14.0363 18.9949 13.5598 19.2587 13.2283C20.5153 11.649 20.9221 10.2901 20.9221 7.67124C20.9221 6.53294 20.9017 6.37755 20.7227 6.15195L20.5234 5.90059H17.4194C14.431 5.90059 14.309 5.90775 14.1403 6.09261C13.8921 6.36457 13.9138 6.84305 14.1841 7.06016C14.3847 7.22118 14.618 7.23607 16.9413 7.23607H19.4794V8.32839C19.4794 9.71136 19.3716 10.2233 18.8556 11.2904C18.2024 12.641 17.0409 13.6763 15.5668 14.2215C15.0518 14.412 14.7916 14.4314 12.3134 14.4636L9.61984 14.4987L9.09182 14.2252C8.48358 13.91 7.91853 13.2385 7.7454 12.6254C7.6724 12.3668 7.64422 11.6696 7.66596 10.6604C7.70481 8.85542 7.78955 8.59901 8.57303 7.91496C9.17319 7.39098 9.73468 7.23607 11.0331 7.23607C12.225 7.23607 12.4583 7.12141 12.4583 6.53542C12.4583 5.96861 12.2784 5.89973 10.8156 5.90698C10.0578 5.9107 9.36593 5.96336 9.1401 6.03433ZM33.9544 6.81949C34.2189 6.99835 34.7695 7.37782 35.1781 7.66284C36.0483 8.27001 36.6643 8.47615 37.608 8.47615C38.5126 8.47615 39.3032 8.20447 40.1297 7.60952C41.6829 6.49144 41.7571 6.4509 42.2534 6.4509C42.8329 6.4509 43.247 6.6518 43.8368 7.21889L44.2937 7.65817V11.4362C44.2937 15.5246 44.2781 15.6739 43.7415 16.7248C43.4381 17.3191 42.4762 18.2693 41.8339 18.6091C40.9061 19.1001 40.4476 19.1599 37.6092 19.1599C35.5795 19.1599 34.8797 19.1277 34.4387 19.0137C32.8959 18.6152 31.6536 17.4614 31.1037 15.9166C30.8905 15.3176 30.8818 15.1686 30.8482 11.5213L30.8134 7.74603L31.2417 7.30885C31.8821 6.65542 32.5655 6.35322 33.185 6.44947C33.3437 6.47408 33.6899 6.64064 33.9544 6.81949ZM6.3056 11.2425C6.34984 12.693 6.38581 12.9848 6.58019 13.4686L6.80371 14.0253L6.53258 14.3061C6.3835 14.4604 6.02187 14.7004 5.7291 14.8395C5.27167 15.0567 5.03795 15.0982 4.06779 15.1346C3.13158 15.1697 2.89757 15.1502 2.69723 15.02L2.45563 14.863V12.8465C2.45563 10.8594 2.45919 10.8239 2.69983 10.4167C3.11513 9.71394 3.63104 9.5326 5.14865 9.55607L6.25472 9.57314L6.3056 11.2425ZM33.6031 11.3964C33.1216 12.4758 34.0003 13.7662 34.5862 12.8403C34.7419 12.5942 34.7755 12.4085 34.7489 11.9395C34.7099 11.2515 34.5086 10.9563 34.0784 10.9563C33.8391 10.9563 33.7714 11.0191 33.6031 11.3964ZM40.6367 11.2186C40.4592 11.4419 40.4335 11.576 40.4641 12.1179C40.4896 12.5696 40.5526 12.8122 40.6806 12.9526C41.3186 13.6517 42.0662 12.4071 41.6154 11.3964C41.4453 11.0151 41.3808 10.9563 41.1322 10.9563C40.9338 10.9563 40.7808 11.0373 40.6367 11.2186ZM29.2354 12.671C29.4787 12.7627 29.4821 12.7778 29.4821 13.7713C29.4821 14.737 29.4744 14.7746 29.2964 14.6801C28.9376 14.4897 28.676 13.9976 28.635 13.4359C28.6049 13.0223 28.6331 12.8613 28.7572 12.7381C28.9473 12.5496 28.9227 12.5531 29.2354 12.671ZM46.4612 12.7381C46.5854 12.8613 46.6135 13.0223 46.5834 13.4359C46.5425 13.9976 46.2808 14.4897 45.922 14.6801C45.7441 14.7746 45.7364 14.737 45.7364 13.7706C45.7364 12.8144 45.7475 12.7582 45.9528 12.6763C46.256 12.5554 46.28 12.5584 46.4612 12.7381ZM8.34335 15.3847C9.256 15.878 9.78575 15.9425 12.5172 15.8925C14.5488 15.8554 15.0091 15.8197 15.5601 15.657L16.2093 15.4653L16.207 18.5288C16.2056 20.246 16.1618 21.7764 16.1072 22.011C15.8248 23.2264 14.9011 24.3808 13.7707 24.9315C12.8186 25.3952 11.9811 25.4886 9.29591 25.4312C7.35424 25.3897 7.05455 25.3616 6.50805 25.1693C5.29792 24.7435 4.24851 23.6918 3.7754 22.4308C3.58506 21.9236 3.56535 21.6589 3.53303 19.1838L3.49793 16.489H4.17426C5.45749 16.489 6.71099 16.0591 7.35559 15.398C7.53794 15.2111 7.69876 15.0581 7.71299 15.0581C7.72722 15.0581 8.01086 15.2051 8.34335 15.3847ZM36.1184 15.5351C35.544 16.1048 36.4692 17.0587 37.5981 17.0608C38.3601 17.0623 39.2924 16.4757 39.2924 15.9949C39.2924 15.4255 38.5609 15.1507 38.0683 15.5351C37.9337 15.64 37.7272 15.7259 37.6092 15.7259C37.4912 15.7259 37.2847 15.64 37.1502 15.5351C37.0157 15.4301 36.7718 15.3443 36.6082 15.3443C36.439 15.3443 36.2279 15.4265 36.1184 15.5351ZM6.21615 17.8818C5.80912 18.395 5.8852 19.3907 6.35465 19.6958C6.5724 19.8373 6.61029 19.8373 6.82804 19.6958C7.29192 19.3943 7.36415 18.3831 6.95817 17.8713C6.71609 17.566 6.46371 17.5697 6.21615 17.8818ZM12.7458 17.9437C12.4006 18.5052 12.5296 19.3955 13.0006 19.7027C13.1851 19.823 13.2338 19.8134 13.4743 19.6082C13.6998 19.4158 13.7482 19.2901 13.7788 18.8166C13.8237 18.1249 13.5749 17.6337 13.1796 17.6337C13.0083 17.6337 12.8799 17.7254 12.7458 17.9437ZM2.1467 20.2915C2.1619 20.7709 2.13747 21.1631 2.09255 21.1631C2.04754 21.1631 1.88721 21.0353 1.7363 20.8791C1.51846 20.6536 1.45257 20.4833 1.4166 20.0527C1.36515 19.4378 1.52865 19.2039 1.91202 19.344C2.10015 19.4129 2.1215 19.499 2.1467 20.2915ZM18.3478 19.4868C18.4518 19.6375 18.4364 20.1575 18.3188 20.4654C18.2012 20.7735 17.8598 21.163 17.7074 21.1633C17.5345 21.1637 17.6301 19.5184 17.8109 19.3811C17.967 19.2626 18.2285 19.3141 18.3478 19.4868ZM43.1314 20.769C42.9264 20.9335 42.904 21.0481 42.837 22.2714C42.6196 26.2453 41.225 29.9229 38.7979 32.9223C38.2182 33.6387 38.1451 33.8768 38.4004 34.2162C38.8059 34.7553 39.2153 34.6139 39.9394 33.6846C42.3497 30.5915 43.8082 26.9373 44.1914 23.0305C44.3515 21.3996 44.3332 21.0983 44.0576 20.825C43.776 20.5456 43.4352 20.525 43.1314 20.769ZM8.58178 21.8415C8.3219 21.9914 8.19783 22.3908 8.32017 22.6831C8.45367 23.0018 8.97698 23.3518 9.49164 23.4665C10.7389 23.7444 12.0705 22.5787 11.2431 21.9332C10.9275 21.687 10.7568 21.6856 10.3904 21.9263C10.0231 22.1675 9.71602 22.1675 9.40681 21.9263C9.13827 21.7168 8.84935 21.687 8.58178 21.8415ZM26.0963 25.0762C24.214 25.3693 22.7139 26.1598 21.3332 27.5862C20.1298 28.8294 19.392 30.2505 19.0996 31.8883C19.044 32.1996 18.9985 33.2333 18.9985 34.1854V35.9165L18.7501 36.0483C18.6135 36.1209 18.3862 36.3749 18.2451 36.6129C18.0245 36.9853 17.9888 37.1524 17.9901 37.8089C17.9917 38.6693 18.1819 39.2011 18.6961 39.7818L18.9985 40.1234V42.3694V44.6155L19.2538 44.8147C19.509 45.0137 19.5111 45.0137 28.3994 44.9885L37.2896 44.9632L37.4735 44.738C37.6425 44.531 37.6573 44.3369 37.6573 42.3302V40.1476L37.9979 39.705C38.5263 39.0184 38.6492 38.6635 38.6545 37.8089C38.6598 36.9386 38.5346 36.6232 37.9988 36.1566L37.6573 35.8592L37.6565 34.2108C37.6558 32.3648 37.5702 31.681 37.2001 30.5642C36.9341 29.7615 36.5683 29.2714 36.235 29.2714C35.9347 29.2714 35.5414 29.6362 35.5414 29.9147C35.5414 30.0511 35.6548 30.444 35.7936 30.788C36.1151 31.5848 36.3032 32.6311 36.3074 33.6457C36.3105 34.3673 36.2948 34.4366 36.1425 34.3768C36.05 34.3404 35.7578 34.229 35.4933 34.1293C34.5457 33.7718 33.4952 32.7327 32.7354 31.4015C32.2704 30.5867 31.884 30.5675 31.0034 31.315C29.5372 32.5598 25.3959 33.8598 21.6995 34.2355C21.1485 34.2916 20.6182 34.3796 20.5213 34.431C20.3564 34.5185 20.3452 34.4701 20.3484 33.6865C20.3599 30.792 21.7383 28.3952 24.0886 27.1824C25.4006 26.5054 26.0429 26.3846 28.3279 26.3846C30.0175 26.3846 30.4046 26.4127 31.034 26.5812C31.9818 26.835 32.9556 27.3247 33.7166 27.9306C34.0637 28.2068 34.4204 28.4129 34.5516 28.4129C34.8322 28.4129 35.2528 28.0152 35.2528 27.7497C35.2528 27.2872 33.8397 26.1673 32.6344 25.6746C31.3103 25.1333 30.8282 25.0539 28.6645 25.0212C27.5537 25.0044 26.398 25.0291 26.0963 25.0762ZM5.24647 27.2007C4.82924 27.4089 4.79135 27.7415 5.09518 28.5276C5.47105 29.5001 6.4036 31.339 6.93711 32.1592C8.93947 35.2383 11.9607 37.8638 15.3364 39.4586C16.8729 40.1846 17.3286 40.2139 17.5634 39.6014C17.7133 39.2103 17.5106 38.9176 16.9071 38.6541C15.2126 37.9144 13.3939 36.8747 12.3621 36.0559C9.75401 33.9861 7.84091 31.4878 6.54614 28.4606C6.29925 27.8834 6.0462 27.3622 5.98368 27.3022C5.79027 27.1168 5.49596 27.0762 5.24647 27.2007ZM32.2596 33.1758C32.8881 34.014 33.752 34.7913 34.4872 35.18L35.0605 35.4829L35.0575 37.1706C35.0558 38.0988 35.0125 39.1796 34.961 39.5725C34.6933 41.6189 33.0348 43.2837 30.9728 43.5762C30.6025 43.6287 29.4123 43.6716 28.3279 43.6716C25.935 43.6716 25.2221 43.5809 24.3365 43.1633C23.1637 42.6104 22.3177 41.6878 21.8684 40.4721C21.6838 39.9727 21.6549 39.6627 21.6183 37.791L21.577 35.6746L21.8987 35.6272C22.0758 35.601 22.7182 35.5069 23.3266 35.4179C26.2446 34.9912 29.6358 33.8736 31.2133 32.8189C31.4513 32.6598 31.6726 32.5262 31.705 32.5221C31.7374 32.518 31.9869 32.8122 32.2596 33.1758ZM23.8796 36.0518C23.787 36.1053 23.7113 36.2579 23.7113 36.3911C23.7113 36.5723 23.7836 36.6602 23.9998 36.7411C24.2381 36.8302 24.2884 36.9026 24.2884 37.1558C24.2884 38.105 25.0264 38.5961 25.4492 37.9281C25.6065 37.6795 25.6384 37.4974 25.6106 37.009C25.5808 36.4852 25.539 36.3684 25.3115 36.1743C25.1054 35.9985 24.9368 35.9494 24.5475 35.9516C24.2727 35.9532 23.9722 35.9982 23.8796 36.0518ZM31.3816 36.0518C30.7378 36.4237 30.8116 38.0391 31.4801 38.2055C31.9299 38.3175 32.2789 37.885 32.2884 37.2038C32.2929 36.8807 32.3268 36.8307 32.5949 36.7523C32.9558 36.6468 33.0642 36.2714 32.791 36.0733C32.5886 35.9266 31.6239 35.9118 31.3816 36.0518ZM20.0977 37.2433C20.2137 37.3584 20.2488 37.6022 20.2488 38.2926C20.2488 38.8547 20.2111 39.192 20.1483 39.192C19.8324 39.192 19.287 38.3015 19.287 37.7855C19.287 37.2262 19.7609 36.9093 20.0977 37.2433ZM37.219 37.3055C37.3935 37.5525 37.4051 37.7706 37.2696 38.2544C37.1691 38.6133 36.7019 39.192 36.5127 39.192C36.4433 39.192 36.407 38.8826 36.407 38.2926C36.407 37.6022 36.4421 37.3584 36.5581 37.2433C36.7715 37.0317 37.0438 37.0573 37.219 37.3055ZM27.0792 39.8877C26.7405 40.0568 26.6115 40.4704 26.7959 40.7963C27.0264 41.2039 27.6892 41.5132 28.3321 41.5132C28.9676 41.5132 29.7062 41.1536 29.8893 40.755C30.0446 40.4169 29.8836 40.043 29.5193 39.8956C29.2588 39.7902 29.1743 39.7986 28.8704 39.9602C28.4595 40.1787 28.155 40.1959 27.8925 40.0157C27.5795 39.8009 27.3315 39.7619 27.0792 39.8877ZM20.6829 41.1714C20.908 41.7657 21.5768 42.7802 22.0156 43.1933C22.2076 43.3742 22.3648 43.5581 22.3648 43.602C22.3648 43.646 21.9211 43.6699 21.3789 43.6549L20.3931 43.6277L20.3665 42.173C20.3518 41.3667 20.3782 40.7183 20.4256 40.7183C20.4727 40.7183 20.5885 40.9221 20.6829 41.1714ZM36.2892 42.173L36.2627 43.6277L35.2769 43.6549C34.7347 43.6699 34.291 43.6541 34.291 43.62C34.291 43.5857 34.5297 43.302 34.8215 42.9894C35.1638 42.6229 35.4966 42.12 35.7593 41.5728C35.9833 41.1063 36.2001 40.7231 36.2412 40.7214C36.2822 40.7197 36.3039 41.373 36.2892 42.173Z" fill="white"/>
</svg>
