<svg width="80" height="80" viewBox="0 0 80 80" fill="none" xmlns="http://www.w3.org/2000/svg">
<path d="M40 80C62.0914 80 80 62.0914 80 40C80 17.9086 62.0914 0 40 0C17.9086 0 0 17.9086 0 40C0 62.0914 17.9086 80 40 80Z" fill="#090C1A"/>
<path d="M16.2571 50.0486C24.7642 35.314 33.2142 20.6788 41.7086 5.9632C42.5016 7.33346 43.2544 8.6276 44.003 9.92175C45.3331 12.2182 46.6441 14.5231 47.9975 16.8175C48.0942 16.9559 48.1473 17.1201 48.15 17.2889C48.1526 17.4577 48.1046 17.6235 48.0123 17.7648C43.3178 26.568 38.6636 35.3922 33.9311 44.1742C32.1421 47.4942 29.1499 49.2007 25.5149 49.8647C24.2395 50.0634 22.9467 50.1272 21.6579 50.055C19.9048 50.0042 18.1497 50.0486 16.2571 50.0486Z" fill="#0093E5"/>
<path d="M58.4859 35.3944C57.0247 32.472 55.2781 29.6849 53.6667 26.8471C52.3409 24.4999 51.0214 22.1527 49.649 19.7082C49.5031 19.9514 49.3994 20.11 49.3064 20.2749C48.211 22.2204 47.1305 24.1743 46.0224 26.1112C44.4069 28.9342 42.8653 31.7995 41.1969 34.5951C39.6638 37.158 39.3381 39.9133 40.1396 42.7765C41.5056 47.6845 46.4157 50.8353 51.2666 49.9514C57.9234 48.7312 61.5035 41.4401 58.4859 35.3944ZM57.3018 38.3887C57.0817 38.5842 56.8271 38.7369 56.5511 38.8391C56.1796 38.9847 55.7931 39.0883 55.3986 39.1478C55.4684 39.2388 55.517 39.298 55.5572 39.3593C55.8659 39.8055 55.7348 40.1924 55.2125 40.3531C54.9967 40.4216 54.7704 40.4509 54.5443 40.4398C53.6012 40.387 52.6644 40.3066 51.7234 40.2791C50.628 40.2432 49.5686 40.4102 48.6424 41.0615C48.008 41.5056 47.5048 42.0343 47.4498 42.8568C47.4304 43.3791 47.5578 43.8963 47.8177 44.3498C48.0884 44.8742 48.0926 44.8742 48.505 44.4914C48.543 44.4597 48.5769 44.4259 48.6149 44.3921C49.3741 43.7936 50.2093 43.5293 51.1694 43.819C51.2497 43.8423 51.347 43.8592 51.3576 43.9734C51.3682 44.0876 51.2667 44.1108 51.1884 44.1425C50.8098 44.2892 50.4901 44.5568 50.2791 44.9038C50.0739 45.2756 49.7615 45.577 49.3825 45.7687C49.207 45.8575 49.2028 45.9611 49.2345 46.1176C49.3106 46.4555 49.2901 46.8079 49.1753 47.1347C48.9907 47.5827 48.9646 48.0803 49.1013 48.5452C49.1245 48.6192 49.1499 48.7038 49.0632 48.7566C48.9765 48.8095 48.9131 48.7672 48.8518 48.7228C48.7904 48.6784 48.6911 48.6107 48.617 48.5473C47.8875 47.9361 47.6422 47.122 47.6845 46.2064C47.7021 46.1234 47.6862 46.0368 47.6403 45.9656C47.5943 45.8943 47.522 45.844 47.4392 45.8258C46.2057 45.3446 45.1423 44.5087 44.3836 43.4236C43.4152 42.0688 42.9686 40.4099 43.126 38.752C43.2833 37.0942 44.034 35.5489 45.24 34.4005C45.4515 34.2017 45.3817 34.1362 45.1998 34.0199C44.9609 33.8634 44.7431 33.6752 44.4957 33.5356C43.9818 33.2396 44.1045 33.0451 44.5401 32.8167C44.6014 32.7871 44.6648 32.7638 44.7304 32.7363C45.1676 32.5557 45.6372 32.467 46.1102 32.4757C46.5831 32.4845 47.0492 32.5904 47.4794 32.7871C47.6207 32.8517 47.7819 32.8578 47.9277 32.804C48.6454 32.5656 49.401 32.4617 50.1565 32.4974C53.1169 32.6517 55.2125 34.0939 56.4305 36.7985C56.4785 36.9158 56.563 37.0144 56.6716 37.0797C56.9709 37.2312 57.2204 37.4653 57.3906 37.7543C57.4531 37.8536 57.4783 37.972 57.4617 38.0882C57.445 38.2044 57.3876 38.3109 57.2996 38.3887H57.3018Z" fill="#00BDFE"/>
<path d="M18.8285 69.0654C18.6183 69.0804 18.4073 69.052 18.2086 68.9818C18.01 68.9115 17.8279 68.8011 17.6739 68.6572C17.5339 68.5005 17.4264 68.3176 17.3574 68.1191C17.2885 67.9205 17.2595 67.7103 17.2722 67.5005V57.1516C17.2567 56.9386 17.2864 56.7247 17.3593 56.5239C17.4322 56.3232 17.5466 56.14 17.6951 55.9865C18.032 55.7012 18.4661 55.5573 18.9067 55.5847C19.2692 55.5664 19.6292 55.6539 19.9429 55.8363C20.2383 56.0539 20.4775 56.3388 20.6407 56.6674L24.6585 63.8571H24.0178L28.008 56.6674C28.1815 56.34 28.4265 56.056 28.7249 55.8363C29.0386 55.6539 29.3986 55.5664 29.7611 55.5847C29.9693 55.5714 30.178 55.6002 30.3749 55.6692C30.5718 55.7382 30.7528 55.8461 30.9072 55.9865C31.0484 56.144 31.1566 56.3283 31.2253 56.5285C31.2939 56.7286 31.3217 56.9405 31.3068 57.1516V67.4984C31.3337 67.9204 31.1931 68.336 30.9156 68.6551C30.5909 68.9203 30.1845 69.0652 29.7653 69.0652C29.346 69.0652 28.9397 68.9203 28.6149 68.6551C28.4745 68.4986 28.3667 68.3158 28.2977 68.1172C28.2288 67.9186 28.2 67.7082 28.2132 67.4984V61.0848H28.6044L25.6037 66.3058C25.4606 66.5435 25.2741 66.7523 25.0539 66.9211C24.8197 67.0556 24.5543 67.1264 24.2842 67.1264C24.0141 67.1264 23.7487 67.0556 23.5145 66.9211C23.2923 66.7575 23.1083 66.5476 22.9753 66.3058L19.9471 61.0658H20.3701V67.4984C20.396 67.9203 20.2556 68.3356 19.9789 68.6551C19.8255 68.7988 19.6443 68.9093 19.4464 68.9799C19.2485 69.0505 19.0381 69.0796 18.8285 69.0654Z" fill="#FEFEFE"/>
<path d="M35.4367 69.0654C35.2052 69.0803 34.9731 69.0474 34.7548 68.9689C34.5366 68.8903 34.3368 68.7677 34.1679 68.6086C34.0114 68.4329 33.8913 68.2278 33.8147 68.0052C33.7381 67.7827 33.7065 67.5472 33.7217 67.3123V57.3377C33.7217 56.7668 33.8705 56.3319 34.1679 56.033C34.5281 55.7451 34.9755 55.5883 35.4367 55.5883C35.8978 55.5883 36.3452 55.7451 36.7054 56.033C36.9973 56.3305 37.1432 56.7654 37.1432 57.3377V67.3123C37.1748 67.7828 37.0232 68.2473 36.7202 68.6086C36.4397 68.9131 36.0119 69.0654 35.4367 69.0654Z" fill="#FEFEFE"/>
<path d="M40.7528 68.8962C40.3757 68.9115 40.0025 68.8143 39.6807 68.617C39.4082 68.4401 39.2068 68.1728 39.1119 67.8621C39.0122 67.521 39.0122 67.1586 39.1119 66.8175C39.2336 66.3962 39.4434 66.0056 39.7272 65.6714L46.1599 57.5999V58.5684H40.4927C40.2945 58.5831 40.0953 58.5586 39.9067 58.4962C39.718 58.4338 39.5434 58.3347 39.3931 58.2047C39.2614 58.0636 39.1602 57.8969 39.0958 57.715C39.0314 57.5331 39.0052 57.3399 39.0188 57.1474C39.0052 56.9568 39.0314 56.7655 39.0959 56.5856C39.1603 56.4058 39.2615 56.2413 39.3931 56.1028C39.7001 55.8472 40.0943 55.7206 40.4927 55.7496H47.7627C48.1399 55.7343 48.5131 55.8314 48.8349 56.0288C49.1062 56.2031 49.3075 56.4674 49.4037 56.7752C49.5034 57.1156 49.5034 57.4774 49.4037 57.8177C49.2836 58.2428 49.0738 58.6373 48.7883 58.9744L42.3578 67.0501V66.0816H48.3231C48.7189 66.0559 49.1095 66.183 49.4143 66.4369C49.5478 66.5739 49.6507 66.7376 49.7164 66.9173C49.782 67.097 49.8087 67.2886 49.7949 67.4794C49.8088 67.6724 49.7822 67.8662 49.7166 68.0484C49.6511 68.2305 49.5481 68.3968 49.4143 68.5367C49.1121 68.7959 48.7204 68.9265 48.3231 68.9004L40.7528 68.8962Z" fill="#FEFEFE"/>
<path d="M57.0057 69.1013C56.1459 69.1162 55.2892 68.9934 54.4682 68.7376C53.7755 68.5196 53.1414 68.1472 52.6137 67.6485C52.0965 67.1404 51.7067 66.5173 51.476 65.83C51.2074 65.0115 51.0787 64.1537 51.0954 63.2924V57.3081C51.0954 56.7442 51.2441 56.3121 51.5416 56.0118C51.9046 55.7303 52.3509 55.5775 52.8103 55.5775C53.2697 55.5775 53.7161 55.7303 54.0791 56.0118C54.3709 56.305 54.5168 56.7371 54.5168 57.3081V63.3305C54.5168 64.2884 54.7283 65.0074 55.1512 65.4937C55.5741 65.9801 56.1874 66.2212 56.9951 66.2212C57.8029 66.2212 58.4014 65.978 58.8243 65.4937C59.2472 65.0095 59.4587 64.2884 59.4587 63.3305V57.3186C59.4587 56.7547 59.6046 56.3227 59.8964 56.0224C60.0673 55.8675 60.2679 55.7488 60.4859 55.6736C60.704 55.5983 60.9351 55.5681 61.1652 55.5847C61.392 55.5688 61.6196 55.5994 61.8342 55.6747C62.0487 55.7499 62.2456 55.8683 62.4128 56.0224C62.6947 56.3156 62.8357 56.7477 62.8357 57.3186V63.303C62.8357 64.5844 62.6151 65.6566 62.1738 66.5193C61.7504 67.3652 61.0589 68.047 60.2072 68.4584C59.3417 68.8884 58.2745 69.1027 57.0057 69.1013Z" fill="#FEFEFE"/>
</svg>
