<svg width="110" height="97" viewBox="0 0 110 97" fill="none" xmlns="http://www.w3.org/2000/svg">
<path fill-rule="evenodd" clip-rule="evenodd" d="M49.4141 0.216528C40.6779 1.401 32.5664 4.8688 26.3184 10.0896C24.2986 11.7775 21.2869 14.7777 19.8696 16.5141C16.0009 21.2535 12.8777 27.4603 11.3831 33.3802C10.1825 38.1356 10.0263 39.9185 10.0074 49.0946C9.99152 56.8147 10.0222 57.558 10.4006 58.631C10.9701 60.2462 12.7802 62.0246 14.3967 62.5575C17.2015 63.4821 20.1291 62.6762 21.9366 60.4817C28.143 52.9463 36.1279 48.6251 47.1582 46.8329C50.5237 46.286 59.4722 46.2858 62.8418 46.8323C73.6259 48.5814 81.7736 52.9098 87.6608 60.0167C88.4434 60.9614 89.2886 61.7177 89.972 62.0846C92.9167 63.6659 96.1587 63.1071 98.3611 60.6384C99.8486 58.971 99.9591 58.4182 100.065 52.103C100.174 45.6616 99.8813 40.0425 99.2608 36.6508C98.3967 31.9277 96.534 26.8925 94.0287 22.5079C92.4662 19.7735 91.6051 18.7832 90.79 18.7832C90.0995 18.7832 89.1602 19.6423 89.1602 20.274C89.1602 20.5216 89.7381 21.6522 90.4447 22.7864C94.1529 28.74 96.2156 35.1808 96.6803 42.2567C96.9407 46.225 96.9465 55.9312 96.6889 57.0271C96.2885 58.7302 94.9438 59.7833 93.2024 59.7574C91.9529 59.7388 91.0991 59.223 90.0234 57.8374C86.3865 53.1525 79.5491 48.4199 73.1006 46.1243L71.7578 45.6463V26.1737C71.7578 15.4638 71.833 6.70105 71.925 6.70105C72.2734 6.70105 75.5227 8.44236 77.3087 9.58614C79.6005 11.0538 81.6658 12.672 83.8292 14.6952C85.6664 16.4134 86.2439 16.5925 87.1288 15.7192C88.1109 14.7503 87.8853 14.188 85.6689 12.081C79.313 6.03865 71.3047 2.06679 62.1973 0.439518C59.5912 -0.026175 52.1593 -0.155899 49.4141 0.216528ZM61.8024 3.59317C63.7396 3.95331 64.6641 4.17503 66.9775 4.83488L68.5352 5.27895V24.9612C68.5352 35.7864 68.4976 44.6433 68.4514 44.6433C68.4054 44.6433 67.4627 44.4616 66.3566 44.2397C62.3898 43.4435 60.3397 43.2682 55 43.2682C49.63 43.2682 47.4119 43.4588 43.7308 44.2367C42.6729 44.4603 41.7302 44.6433 41.6361 44.6433C41.542 44.6433 41.4648 35.7817 41.4648 24.9508V5.2586L43.0225 4.79164C44.9846 4.20343 47.0486 3.76148 49.5215 3.39965C52.0612 3.02807 59.3839 3.14359 61.8024 3.59317ZM38.2422 26.1737V45.6463L36.8994 46.1192C34.508 46.9611 30.4333 49.017 28.1334 50.5419C25.3647 52.3778 22.2252 55.1268 20.5176 57.2104C18.847 59.2489 18.1335 59.7375 16.7976 59.7574C15.0562 59.7833 13.7115 58.7302 13.3111 57.0271C13.055 55.9373 13.0584 45.811 13.3162 41.8877C14.1636 28.9969 20.5853 17.7554 31.3257 10.3609C33.3089 8.9956 37.4578 6.7144 37.9736 6.7055C38.1865 6.70189 38.2422 10.7344 38.2422 26.1737ZM28.4 64.3645C28.0932 64.6465 27.9297 65.0488 27.9297 65.5221C27.9297 66.8117 28.5134 67.1114 31.0318 67.1146C40.3515 67.1267 47.9102 73.1107 47.9102 80.4773C47.9102 85.0956 44.8345 89.4261 39.8535 91.8207C36.6601 93.356 35.081 93.6865 30.9375 93.6865C26.9225 93.6865 25.2525 93.3596 22.3629 92.0089C16.952 89.4797 13.9648 85.3737 13.9648 80.4658C13.9648 75.6681 16.8188 71.6403 22.0509 69.0535C23.0057 68.5814 23.4266 68.2382 23.5757 67.8096C23.8672 66.973 23.526 66.1476 22.7588 65.8341C21.8997 65.4829 20.7253 65.9327 18.2682 67.5544C16.0686 69.0058 13.8959 71.199 12.746 73.1279L11.9238 74.5072L6.37227 74.5718C0.833594 74.6365 0.819844 74.6378 0.410352 75.1372C0.0333008 75.5969 0 76.0291 0 80.4658C0 84.9025 0.0333008 85.3347 0.410352 85.7945C0.820059 86.2941 0.830156 86.2949 6.41889 86.3579L12.0169 86.4208L12.7112 87.7064C14.2229 90.5044 18.011 93.6754 21.6515 95.1904C25.4302 96.7625 30.039 97.3514 34.2098 96.7948C40.6235 95.9388 46.4103 92.3761 49.1999 87.5657L49.8753 86.4009H54.9953H60.1152L60.7522 87.5137C62.8222 91.1308 66.9047 94.277 71.5509 95.8362C76.7252 97.5725 83.2079 97.3293 88.3066 95.2078C91.9072 93.7096 95.8042 90.4607 97.2778 87.7289L97.9831 86.4208L103.581 86.3579C109.17 86.2949 109.18 86.2941 109.59 85.7945C109.966 85.3354 110 84.904 110 80.5657C110 77.965 109.94 75.6828 109.867 75.4941C109.537 74.6462 108.745 74.5307 103.271 74.5307H98.0255L97.1914 73.1031C96.2713 71.528 93.7075 68.839 92.1029 67.766C88.4507 65.3239 83.7169 63.9323 79.0625 63.9323C71.2841 63.9323 64.1751 67.6202 60.7769 73.4179L60.1247 74.5307H55.0047H49.8846L49.294 73.5239C47.5582 70.5654 44.8856 68.1176 41.5566 66.4376C38.1814 64.734 34.7869 63.9323 30.95 63.9323C29.1539 63.9323 28.806 63.9913 28.4 64.3645ZM84.3262 67.7272C87.6509 68.6001 90.9305 70.4847 92.9161 72.6635C95.0576 75.0136 96.0352 77.4588 96.0352 80.4658C96.0352 85.3737 93.048 89.4797 87.6371 92.0089C84.7475 93.3596 83.0775 93.6865 79.0625 93.6865C74.919 93.6865 73.3399 93.356 70.1465 91.8207C62.5221 88.1552 59.8812 80.4137 64.1128 74.1337C66.2933 70.8978 70.1398 68.5058 74.7656 67.5095C77.257 66.9728 81.8514 67.0775 84.3262 67.7272ZM28.1798 70.9381C23.6837 71.7336 19.9785 74.1382 18.4125 77.2766C17.8013 78.5015 17.7246 78.857 17.7246 80.4658C17.7246 82.088 17.7989 82.4252 18.4377 83.7053C20.9642 88.7688 28.6657 91.4341 35.4108 89.5792C39.0698 88.5729 42.1526 86.3072 43.4472 83.6727C44.0599 82.4261 44.1375 82.0641 44.1356 80.4658C44.1336 78.9178 44.0462 78.485 43.5136 77.3923C42.2181 74.7336 39.0268 72.3479 35.4458 71.361C33.5844 70.848 29.9011 70.6337 28.1798 70.9381ZM76.5869 70.9247C73.3962 71.3875 70.5719 72.7212 68.5188 74.7349C66.5204 76.6949 65.8672 78.1049 65.8644 80.4658C65.8625 82.0641 65.9401 82.4261 66.5528 83.6727C67.8425 86.2973 70.9425 88.567 74.6679 89.6146C76.0283 89.9972 76.9325 90.0968 79.1005 90.1027C81.5381 90.1095 81.8877 90.0637 82.4306 89.6654C83.3067 89.0225 83.3794 87.8858 82.5836 87.2681C82.0518 86.8554 81.8333 86.8272 80.1423 86.9533C75.5636 87.2941 70.8707 85.2368 69.4732 82.2756C68.837 80.9281 68.8364 80.0044 69.4704 78.6641C71.0742 75.2735 76.678 73.2178 81.6501 74.1962C86.0026 75.0526 89.1602 77.6753 89.1602 80.4336C89.1602 81.6128 88.7706 82.481 87.688 83.7151C86.703 84.8379 86.5474 85.6391 87.1729 86.3685C88.1422 87.4985 89.4474 86.9817 90.8473 84.9133C92.5949 82.3313 92.8379 79.7822 91.5769 77.2556C89.3131 72.7186 82.8983 70.0095 76.5869 70.9247ZM34.9134 74.5403C38.4901 75.6154 41.0309 78.0763 41.0309 80.4658C41.0309 82.3447 39.1935 84.5608 36.6457 85.7553C35.182 86.4414 32.5523 87.0377 31.0002 87.0351C27.9357 87.0305 24.7433 85.9238 22.8383 84.206C20.1775 81.8067 20.1614 79.1874 22.7926 76.7594C25.5655 74.2003 30.6717 73.2655 34.9134 74.5403ZM10.8054 80.519L10.8496 83.2218L7.03613 83.2216L3.22266 83.2214V80.4609V77.7005L6.99187 77.7584L10.7609 77.8162L10.8054 80.519ZM58.9746 80.4658V83.2214H55H51.0254V80.4658V77.7102H55H58.9746V80.4658ZM106.777 80.4658V83.2214L102.964 83.2216L99.1504 83.2218L99.1996 80.519C99.2264 79.0325 99.2507 77.7923 99.2533 77.7632C99.2557 77.7342 100.95 77.7102 103.018 77.7102H106.777V80.4658Z" fill="#232323"/>
</svg>
