<svg width="50" height="45" viewBox="0 0 50 45" fill="none" xmlns="http://www.w3.org/2000/svg">
<path fill-rule="evenodd" clip-rule="evenodd" d="M23.9411 0.0878279C21.1806 0.402632 18.576 2.38126 17.4773 4.99795L17.2443 5.5531L15.9503 6.16429C10.7283 8.63081 6.6917 13.2642 5.06657 18.657L4.83096 19.4386L4.02118 19.635C2.98839 19.8854 2.24845 20.2994 1.49454 21.0486C0.842027 21.6972 0.383997 22.5058 0.142137 23.4365C-0.550426 26.1011 1.36677 29.0092 4.17796 29.5583L4.79716 29.6793L5.22882 30.9734C5.46619 31.6852 5.94131 32.8288 6.28456 33.5148C9.42698 39.795 15.4784 44.0252 22.558 44.8908C23.7496 45.0364 26.2504 45.0364 27.442 44.8908C31.941 44.3407 36.0895 42.4253 39.2889 39.421C41.8349 37.0303 43.7196 34.1259 44.7712 30.9734L45.2028 29.6793L45.822 29.5583C48.6332 29.0092 50.5504 26.1011 49.8579 23.4365C49.3555 21.5035 47.9333 20.1089 45.9821 19.6358L45.1532 19.4348L45.0276 18.9429C44.6116 17.314 43.511 14.9917 42.3366 13.2641C40.1871 10.1026 37.5227 7.81708 34.0642 6.16774L32.7509 5.54149L32.52 4.99209C31.3909 2.30518 28.8366 0.409061 25.9012 0.078617C24.9566 -0.0276929 24.9535 -0.0276931 23.9411 0.0878279ZM26.4203 2.23734C27.4992 2.50676 28.4004 3.01625 29.2247 3.82269C29.6411 4.23008 29.9818 4.61176 29.9818 4.67096C29.9818 4.73227 29.8158 4.77852 29.5958 4.77852C28.3532 4.77852 26.8513 5.44401 25.8386 6.4433C23.9831 8.27427 23.5653 10.9171 24.762 13.2536C24.9467 13.6139 25.0977 13.9264 25.0977 13.9477C25.0977 14.0469 23.8001 13.8445 23.1364 13.6419C20.2675 12.766 18.4486 9.70572 19.0765 6.81174C19.5495 4.6322 21.3243 2.81341 23.5348 2.2432C24.2479 2.05926 25.6951 2.05629 26.4203 2.23734ZM30.8684 7.09383C37.1886 9.15661 41.8661 14.2459 43.3014 20.6211C44.8707 27.5923 42.1402 34.8801 36.3317 39.2232C31.3451 42.9519 24.7715 43.979 18.846 41.9554C14.2447 40.384 10.3993 37.0514 8.2211 32.7472C6.32569 29.0018 5.79469 24.8701 6.67959 20.7525C7.64214 16.2734 10.3501 12.2352 14.2031 9.53272C14.9903 8.98064 16.4589 8.13678 16.7703 8.05772C16.8552 8.03613 16.8935 8.16787 16.8958 8.48948C16.8977 8.74403 16.9571 9.21686 17.0278 9.5403L17.1563 10.1285L16.5116 10.498C15.0855 11.3154 12.5629 13.4521 12.1398 14.2009C11.7498 14.8911 12.4746 15.8384 13.2545 15.6578C13.41 15.6218 13.9736 15.1651 14.5969 14.5702C15.1879 14.0061 15.9351 13.3507 16.2575 13.1137C16.8849 12.6525 17.826 12.0704 17.944 12.0707C17.9834 12.0708 18.1441 12.2704 18.301 12.5143C18.6542 13.0634 19.7236 14.1368 20.3113 14.532C21.7115 15.4735 23.4764 16.007 25.178 16.0031C25.8609 16.0016 27.3954 15.6988 27.8241 15.4811C28.0129 15.3852 28.1994 15.1834 28.2848 14.9824C28.5017 14.4727 28.3374 14.1288 27.5438 13.4309C27.0428 12.9903 26.783 12.6682 26.544 12.1912C26.2436 11.5919 26.221 11.4796 26.221 10.5854C26.221 9.7036 26.2468 9.57043 26.5322 8.97862C27.1246 7.75049 28.432 6.85146 29.6962 6.80301C29.8348 6.79773 30.3622 6.92861 30.8684 7.09383ZM10.8245 16.2394C10.4847 16.4277 10.2342 16.9581 10.3098 17.3294C10.3424 17.489 10.4937 17.7369 10.6462 17.8805C11.4276 18.6158 12.6872 17.7308 12.2664 16.742C12.1948 16.5738 12.0653 16.3783 11.9784 16.3076C11.7399 16.1133 11.1184 16.0765 10.8245 16.2394ZM4.31403 22.121C4.22094 22.7154 4.22152 26.4719 4.31491 27.0685C4.38475 27.5152 4.37996 27.5284 4.16839 27.4673C3.71192 27.3356 2.94258 26.7509 2.64484 26.3095C1.63481 24.8115 2.09079 22.8243 3.64559 21.9484C4.34148 21.5564 4.40009 21.5716 4.31403 22.121ZM46.3544 21.9484C48.4875 23.1502 48.3747 26.2675 46.1599 27.3206C45.906 27.4413 45.6817 27.5237 45.6613 27.5036C45.6408 27.4836 45.6694 27.1224 45.7247 26.701C45.8306 25.8947 45.7802 22.1235 45.6597 21.8332C45.557 21.5861 45.7756 21.6223 46.3544 21.9484ZM16.404 22.8257C15.7334 22.9538 14.7899 23.4676 14.3208 23.9601C13.1608 25.1783 12.9126 26.4607 13.7541 26.8881C14.4046 27.2185 14.9362 26.9787 15.2887 26.1958C15.7279 25.2202 16.3426 24.7987 17.3138 24.8068C18.1553 24.8139 18.6723 25.1581 19.1524 26.0309C19.5762 26.8014 19.8274 27.0384 20.2198 27.0384C20.8588 27.0384 21.2882 26.6064 21.288 25.9638C21.2879 25.4666 20.763 24.4952 20.1913 23.934C19.206 22.9669 17.8075 22.5576 16.404 22.8257ZM31.7849 22.8546C31.0048 23.0407 30.3645 23.3908 29.8087 23.9351C29.2369 24.4951 28.7121 25.4659 28.712 25.9638C28.7118 26.6666 29.2455 27.1234 29.9215 26.9988C30.3154 26.9263 30.4071 26.8287 30.868 25.9924C31.3266 25.1607 31.8585 24.8137 32.6862 24.8068C33.6574 24.7987 34.2721 25.2202 34.7113 26.1958C34.9631 26.7549 35.3108 27.0384 35.745 27.0384C36.099 27.0384 36.5366 26.7501 36.6743 26.4262C37.0445 25.5563 35.9838 23.8768 34.6467 23.2152C33.6813 22.7376 32.7609 22.6216 31.7849 22.8546ZM21.619 32.9852C20.9829 33.2376 20.8312 34.0021 21.2463 34.8639C22.5017 37.4705 26.06 38.0105 28.0299 35.8934C28.9528 34.9015 29.2448 33.8575 28.7581 33.2894C28.4363 32.9137 28.0413 32.8305 27.5865 33.0425C27.31 33.1713 27.1659 33.3437 26.9226 33.8366C26.5637 34.5634 26.1348 34.9389 25.464 35.1131C24.4992 35.3638 23.5951 34.8848 23.085 33.8527C22.6878 33.0486 22.1946 32.7567 21.619 32.9852Z" fill="white"/>
</svg>
