<svg width="104" height="97" viewBox="0 0 104 97" fill="none" xmlns="http://www.w3.org/2000/svg">
<path fill-rule="evenodd" clip-rule="evenodd" d="M61.7762 0.23654C59.8247 0.677815 58.5652 1.12011 56.8519 1.9655C52.5858 4.07095 50.2584 6.36993 45.7974 12.8857C36.0587 27.1097 35.0245 28.7732 33.8403 32.1217C33.7101 32.4899 33.6724 32.4706 33.4368 31.915C33.2938 31.5779 32.3338 28.9278 31.3033 26.0259C28.9581 19.4218 28.0072 17.3971 26.6593 16.1365C25.3896 14.9489 24.3226 14.6175 22.8386 14.9495C18.694 15.8769 17.3834 22.176 19.4263 31.3498C20.4084 35.7605 20.7655 36.4877 21.9478 36.4877C22.2953 36.4877 22.7397 36.3052 22.9822 36.0627C23.5084 35.5366 23.4556 34.7702 22.7009 31.9804C21.8558 28.8565 21.4803 25.7919 21.5989 22.9867C21.7186 20.1581 21.9667 19.1765 22.7636 18.3796C23.4661 17.6772 23.7783 17.6628 24.5326 18.2974C25.5019 19.1129 26.0785 20.454 29.0801 28.8725C29.8764 31.1063 31.161 34.3504 31.9345 36.0816C32.7079 37.8128 33.6145 40.0517 33.949 41.0569C35.2804 45.0568 37.3473 47.4347 42.9915 51.4598C47.116 54.4013 53.2306 58.4794 57.1838 60.9252C59.9596 62.6426 60.238 62.8946 61.461 64.7958L61.8396 65.3845L61.3396 65.1203C61.0644 64.9751 60.3071 64.4965 59.6564 64.0568C57.1474 62.3614 55.1689 61.7702 52.005 61.7702C48.8386 61.7702 46.7783 62.3892 44.2882 64.0889C41.83 65.7667 39.9953 66.399 37.5857 66.399C35.3576 66.399 33.1064 65.682 31.3915 64.4262C30.1681 63.5304 29.1285 62.985 27.6494 62.4629L26.138 61.9294L25.1059 59.9206C24.5382 58.8157 23.7326 57.3516 23.3154 56.6668C22.8983 55.982 22.5571 55.3761 22.5571 55.32C22.5571 55.1801 25.6262 54.2149 27.181 53.8658L28.454 53.5801L28.7503 54.153C28.9132 54.4679 29.1922 54.8715 29.3703 55.0495C29.7854 55.4648 30.9636 55.4677 31.3766 55.0546C32.0901 54.3412 31.9865 53.875 30.4254 50.7668C29.5943 49.1121 28.1559 46.022 27.229 43.8999C25.638 40.258 24.9399 39.1277 24.2815 39.1277C23.693 39.1277 22.9824 39.6067 22.7543 40.1575C22.5425 40.6688 22.6345 40.9998 23.6373 43.3294C24.2531 44.7601 25.0738 46.6206 25.4613 47.4638L26.1656 48.9972L23.7976 48.9127C20.3225 48.7888 18.0654 49.4724 14.8154 51.6329C12.9644 52.8633 11.4593 53.3807 9.38233 53.5009C6.88575 53.6455 5.25861 53.2034 2.49477 51.6304C1.76284 51.2137 1.52827 51.1686 1.01811 51.3465C-0.201842 51.7718 -0.336084 52.993 0.733788 53.9324C3.31119 56.1953 8.21721 57.1781 12.046 56.1989C13.8038 55.7495 15.0026 55.1799 17.1728 53.7635C18.8442 52.6724 20.0798 52.1891 21.6432 52.0148L22.6587 51.9017L21.5317 52.3885C15.0678 55.1807 10.4833 59.2832 7.71903 64.7487L6.93165 66.3058L5.96069 66.0489C4.93062 65.7764 3.51428 65.1128 2.62312 64.4851C1.83473 63.9301 0.944391 63.9932 0.435248 64.6406C-0.494899 65.8227 0.138129 66.7698 2.69583 68.023C4.74053 69.025 6.42759 69.4153 8.73407 69.4201C11.7916 69.4264 13.965 68.7285 16.9301 66.7883C19.0595 65.3951 20.4517 64.8953 22.5571 64.7686C25.2941 64.6039 26.9853 65.1725 30.5639 67.4611C34.99 70.2917 41.0047 70.1189 45.3392 67.0365C47.784 65.298 49.9891 64.6106 52.6143 64.7686C54.7707 64.8983 55.9681 65.3467 58.6752 67.0375C61.0727 68.5349 62.618 69.1135 64.9223 69.3763C68.1631 69.7459 71.6254 68.8771 74.1557 67.0594C76.5907 65.3102 78.8076 64.6124 81.4535 64.7629C83.5516 64.8823 84.9135 65.3926 87.4885 67.0249C90.1363 68.7035 91.7639 69.2286 94.6536 69.3373C97.4126 69.4409 99.0714 69.1216 101.272 68.0634C103.823 66.8365 104.505 65.8229 103.575 64.6406C102.996 63.9047 102.267 63.9532 100.822 64.8236C99.1072 65.8562 97.3131 66.3603 95.3246 66.368C92.8198 66.3777 91.0295 65.7742 88.5557 64.0856C83.8347 60.8633 77.8507 60.8647 73.1268 64.0889C70.9276 65.59 69.5527 66.118 67.0336 66.4289C66.5309 66.4908 66.0197 66.4734 65.8977 66.3897C65.7756 66.3062 65.4312 65.7472 65.1324 65.1477L64.5892 64.0574L65.8863 64.1963C67.5141 64.3708 70.0238 64.0355 71.9203 63.3905C75.6009 62.1388 77.9118 60.1574 81.2975 55.3503L83.539 52.1677L84.432 52.472C84.9231 52.6393 86.0094 53.2231 86.8461 53.7692C89.0072 55.1799 90.2078 55.7499 91.9639 56.1989C95.7928 57.1781 100.699 56.1953 103.276 53.9324C104.347 52.9922 104.212 51.7718 102.99 51.3457C102.466 51.1631 102.232 51.2172 101.31 51.7338C98.5954 53.2546 97.1189 53.6451 94.6277 53.5009C92.5369 53.3799 91.1357 52.8923 89.0462 51.5581C88.165 50.9956 86.987 50.3234 86.4285 50.0647C85.8701 49.8058 85.3847 49.579 85.3497 49.5605C85.3148 49.542 87.0433 46.8901 89.1908 43.6674C91.3382 40.4446 93.4398 37.0762 93.861 36.1821C97.2973 28.8859 96.5042 20.5171 91.826 14.7079C90.5815 13.1627 90.0734 12.8305 89.1605 12.9653C88.5248 13.0593 87.8682 13.9926 88.0183 14.5891C88.0839 14.85 88.6428 15.6576 89.2602 16.3836C90.6339 17.9993 91.8764 20.4128 92.4485 22.5773C92.7751 23.8122 92.8786 24.8107 92.8809 26.7403C92.886 31.1955 91.813 34.2739 88.5663 39.12L86.8782 41.6393L86.4503 41.12C86.2149 40.8343 85.2088 39.4424 84.2145 38.0268C78.7473 30.2443 72.3271 24.6978 64.0888 20.64C60.2195 18.7342 56.8533 17.5578 51.9034 16.3812C49.8929 15.9033 48.1808 15.4542 48.0992 15.3831C48.0173 15.3118 48.7399 14.0686 49.705 12.6203C52.415 8.55336 55.0925 6.10735 58.6176 4.47892C62.791 2.55075 68.0843 2.4681 71.991 4.26996C72.5596 4.53212 75.5596 6.45115 78.658 8.53447C81.7561 10.6176 84.4791 12.3222 84.709 12.3222C85.7299 12.3222 86.5161 10.6501 85.8701 9.85261C85.4367 9.31752 75.123 2.4618 73.5905 1.69013C71.1307 0.451593 69.5695 0.102106 66.1197 0.0176283C63.9586 -0.0351704 62.6964 0.028594 61.7762 0.23654ZM34.4002 12.9328C34.1563 13.0311 33.8572 13.2973 33.7355 13.5246C33.4636 14.0326 33.0954 18.6422 33.2575 19.5095C33.4912 20.7602 34.5578 21.3847 35.5519 20.8528C35.9472 20.6412 36.4734 19.3596 36.2879 19.0597C36.2286 18.9636 36.2666 17.8214 36.3726 16.5215C36.5851 13.9159 36.4634 13.3361 35.6245 12.9537C35.0534 12.6936 34.9963 12.6928 34.4002 12.9328ZM50.045 19.0564C52.5444 19.6159 53.7381 19.9634 53.4845 20.0572C52.7162 20.3415 48.469 20.6847 47.3549 20.5527C45.9034 20.3807 44.6491 20.0568 44.7314 19.8752C44.9645 19.3611 45.8461 18.2147 46.0139 18.2078C46.1256 18.2031 47.9396 18.5849 50.045 19.0564ZM62.9718 23.4485C68.4075 26.18 74.7349 30.912 75.6299 32.9153C75.8342 33.3724 76.5349 35.8121 77.1868 38.3373C78.6988 44.1917 79.6202 46.368 81.4076 48.3045C81.7224 48.6457 81.8633 48.9773 81.7827 49.1875C81.4181 50.137 76.5306 56.7785 75.4555 57.7851C73.1142 59.9767 70.216 61.1273 67.0336 61.1283C63.7742 61.1291 62.3946 60.6155 57.6915 57.6499C49.5937 52.5438 41.4868 46.8026 39.6665 44.8852C37.4876 42.5899 36.3671 39.7164 36.3671 36.4236C36.3671 33.1758 37.0581 31.4723 40.6237 25.928C41.6651 24.3085 42.5813 22.9112 42.6592 22.8228C42.7374 22.7345 43.5242 22.8681 44.4076 23.1195C46.617 23.7484 50.2966 23.7113 54.6451 23.0166C56.3765 22.7398 58.5241 22.5056 59.4177 22.4961C60.9677 22.4796 61.1312 22.5235 62.9718 23.4485ZM54.3322 24.076C52.3041 24.9971 51.1242 27.8547 52.2048 29.2285C53.6985 31.1273 57.0822 28.5637 57.0822 25.5334C57.0822 25.0834 56.8982 24.6974 56.4886 24.2878C55.7997 23.599 55.4565 23.5653 54.3322 24.076ZM10.4154 30.9138C9.56998 31.2692 9.43229 31.914 9.84821 33.5698C10.8823 37.6863 14.4687 42.3768 16.5816 42.3768C17.3119 42.3768 18.0892 41.6242 18.0892 40.9174C18.0892 40.6986 17.3507 39.7984 16.4039 38.8633C14.516 36.9985 13.5093 35.3109 12.8365 32.8826C12.3417 31.098 12.3389 31.0931 11.6273 30.845C11.216 30.7016 10.8736 30.7211 10.4154 30.9138ZM53.1128 35.9709C52.6803 36.4033 52.6143 36.6541 52.6143 37.8631C52.6143 40.3873 53.4821 42.4256 55.2676 44.0956C57.7839 46.449 61.3223 47.0028 64.5126 45.5425C65.8634 44.9242 66.2165 44.2597 65.7332 43.2462C65.316 42.3716 64.6418 42.2223 63.4243 42.7353C61.326 43.6192 59.3704 43.4679 57.844 42.3037C56.4285 41.2242 55.8415 40.0555 55.6815 37.9976C55.5643 36.4922 55.4762 36.1817 55.0724 35.8548C54.4272 35.3325 53.7087 35.3751 53.1128 35.9709ZM73.8685 36.9887C72.8175 37.3612 72.1522 38.012 71.5781 39.2292C70.9055 40.6556 70.94 41.6435 71.689 42.3925C72.0155 42.719 72.4664 42.986 72.6912 42.986C75.1029 42.986 77.3903 39.0479 75.9187 37.4294C75.3129 36.7629 74.8104 36.6549 73.8685 36.9887ZM82.7585 41.2094C83.8347 42.7452 84.7646 44.1308 84.8252 44.2881C84.9369 44.5796 83.9641 46.2352 83.681 46.2352C83.4691 46.2352 82.3749 44.5042 81.8826 43.3904C81.5156 42.5598 80.7065 39.9329 80.3507 38.4169C80.2246 37.8798 80.2429 37.8439 80.5049 38.1123C80.6681 38.2799 81.6824 39.6735 82.7585 41.2094ZM7.18755 40.3845C6.57422 40.681 6.23973 41.5562 6.48912 42.2121C6.90119 43.2957 10.1017 45.3358 12.8088 46.2405C14.5178 46.8115 17.8351 47.4536 19.0764 47.4536C20.1978 47.4536 20.9324 46.8747 20.9324 45.9907C20.9324 44.9002 20.3904 44.5846 17.9844 44.2735C14.3885 43.8085 11.5759 42.7235 9.28728 40.9184C8.26432 40.1114 7.92882 40.0261 7.18755 40.3845ZM21.3197 59.323L22.5506 61.5462L20.7252 61.915C18.616 62.3411 17.0889 62.97 15.4543 64.0856C14.8176 64.5202 13.8933 65.0821 13.4004 65.3339C12.4624 65.8136 10.5556 66.3877 10.4041 66.2364C10.1457 65.9779 12.7087 62.4034 14.332 60.7583C16.461 58.6005 19.4736 56.4702 19.8505 56.8559C19.9815 56.9899 20.6426 58.1001 21.3197 59.323ZM21.6432 74.5759C21.4198 74.6273 20.7344 74.7697 20.12 74.8923C18.681 75.1797 16.5351 76.1723 14.7382 77.382C11.2164 79.7529 6.88413 79.8715 3.25148 77.6968C1.7013 76.7687 1.19683 76.7135 0.512827 77.3976C-0.601521 78.5117 0.0847163 79.5815 2.72325 80.8438C5.12254 81.9913 6.35549 82.2764 8.84861 82.2604C11.9947 82.2401 14.0846 81.5328 17.2242 79.4263C20.8725 76.9783 25.4885 76.9923 29.1575 79.4623C30.8573 80.6068 33.0075 81.6197 34.5394 81.9978C36.096 82.382 39.4167 82.329 41.0219 81.894C42.575 81.4733 44.1918 80.6817 46.0628 79.4263C49.7111 76.9783 54.3271 76.9923 57.9961 79.4623C59.696 80.6068 61.8461 81.6197 63.378 81.9978C64.9346 82.382 68.2553 82.329 69.8606 81.894C71.4136 81.4733 73.0304 80.6817 74.9014 79.4263C78.5497 76.9783 83.1657 76.9923 86.8347 79.4623C88.5346 80.6068 90.6847 81.6197 92.2166 81.9978C93.7783 82.3832 97.0929 82.3288 98.7154 81.891C100.367 81.4453 103.063 80.0601 103.595 79.3847C104.134 78.6991 104.1 77.9999 103.497 77.3976C102.817 76.7171 102.361 76.7673 100.782 77.697C98.8901 78.8102 97.3691 79.2212 95.1614 79.2157C92.9034 79.21 91.2147 78.6875 89.296 77.4009C87.4478 76.1615 85.826 75.3691 84.2799 74.9502C82.6747 74.5152 79.3539 74.4622 77.7973 74.8464C76.2654 75.2246 74.1153 76.2375 72.4154 77.382C68.7495 79.8499 64.0295 79.8613 60.4496 77.4106C58.6661 76.1896 57.0065 75.3744 55.4413 74.9502C53.836 74.5152 50.5153 74.4622 48.9587 74.8464C47.4268 75.2246 45.2767 76.2375 43.5768 77.382C41.694 78.6496 39.8199 79.2236 37.5857 79.2169C35.3273 79.2102 33.6596 78.7109 31.7635 77.4732C29.6924 76.1211 28.1356 75.3628 26.6305 74.9729C25.3406 74.6387 22.391 74.4039 21.6432 74.5759ZM21.0339 89.4183C18.6937 89.9054 16.8964 90.667 14.9646 91.9896C12.6813 93.553 11.6957 93.8475 8.74706 93.8475C5.95378 93.8475 4.83009 93.5492 3.02971 92.3291C1.892 91.558 1.00511 91.5339 0.435248 92.2584C-0.462608 93.3997 0.177325 94.4033 2.53397 95.5504C4.65137 96.581 5.69119 96.8487 7.9869 96.9547C11.5259 97.1179 13.6068 96.5355 16.6897 94.5184C19.3428 92.7828 20.3782 92.4524 23.1664 92.4524C25.945 92.4524 26.9916 92.7838 29.5992 94.4896C32.4215 96.3359 34.515 96.9949 37.5727 97C40.6716 97.0052 42.696 96.3713 45.5561 94.5002C48.1804 92.7834 49.2227 92.4524 52.005 92.4524C54.7782 92.4524 55.8257 92.7844 58.4157 94.4835C61.2179 96.3219 63.3564 96.9949 66.4113 97C69.5102 97.0052 71.5346 96.3713 74.3947 94.5002C77.019 92.7834 78.0613 92.4524 80.8436 92.4524C83.6223 92.4524 84.6688 92.7838 87.2764 94.4896C90.1055 96.3402 92.1967 96.9967 95.2629 96.9971C97.6033 96.9973 99.3633 96.6082 101.264 95.6707C103.835 94.4021 104.495 93.4281 103.575 92.2584C103.005 91.5339 102.118 91.558 100.98 92.3291C99.1799 93.5492 98.0562 93.8475 95.2629 93.8475C92.3163 93.8475 91.3283 93.5528 89.0529 91.9949C86.039 89.9312 83.4925 89.177 80.1328 89.3525C77.2363 89.5038 75.2384 90.2143 72.5627 92.0446C70.361 93.5508 69.3506 93.8475 66.4243 93.8475C63.4738 93.8475 62.4511 93.5412 60.1606 91.9723C57.1608 89.9176 54.6543 89.177 51.2942 89.3525C48.3977 89.5038 46.3997 90.2143 43.724 92.0446C41.5224 93.5508 40.512 93.8475 37.5857 93.8475C34.6391 93.8475 33.651 93.5528 31.3756 91.9949C28.5943 90.0906 26.0709 89.2765 23.0648 89.3135C22.1712 89.3247 21.2573 89.3716 21.0339 89.4183Z" fill="#232323"/>
</svg>
