<svg width="81" height="97" viewBox="0 0 81 97" fill="none" xmlns="http://www.w3.org/2000/svg">
<path fill-rule="evenodd" clip-rule="evenodd" d="M0.494062 0.392736L0 0.785283V25.8448C0 49.4736 0.01875 50.9208 0.328125 51.1953C1.16137 51.9346 2.27644 51.7023 2.61563 50.7191C2.74913 50.3324 2.8125 42.5231 2.8125 26.4952V2.8418H31.875H60.9375V35.7119V68.582L55.3594 68.5881C49.2334 68.5947 49.2578 68.5902 48.9304 69.7436C48.8312 70.0933 48.75 72.703 48.75 75.5431V80.707H25.7812H2.8125V68.2884C2.8125 57.7597 2.77069 55.7883 2.53819 55.334C2.08125 54.4412 1.07437 54.2838 0.407625 55.0009L0 55.4395V69.0822V82.7249L0.433875 83.137C0.865875 83.5469 0.907125 83.5488 9.05888 83.5488H17.25V89.5043C17.25 95.5297 17.3207 96.2507 17.9604 96.7418C18.2198 96.9407 23.0558 96.989 43.2124 96.9939L68.1437 97L74.5718 90.5148L81 84.0298V58.4357V32.8415L80.5661 32.4294C80.0304 31.9211 79.3084 31.9016 78.7239 32.3798L78.2812 32.7419L78.2323 57.3876L78.1834 82.0332H72.6456H67.1079L66.6478 82.4983L66.1875 82.9632V88.5608V94.1582H43.125H20.0625V88.8535V83.5488H35.4778H50.8931L57.0536 77.3442C60.4419 73.9316 63.3349 70.9095 63.4821 70.6281C63.7106 70.1916 63.75 66.164 63.75 43.2048V16.293H70.9612H78.1723L78.2269 22.2774L78.2812 28.2617L78.8233 28.7326C79.4139 29.2457 80.0548 29.2199 80.6719 28.658C80.9732 28.3837 81 27.7839 81 21.3171V14.2751L80.5661 13.863C80.1341 13.4531 80.0929 13.4512 71.9411 13.4512H63.75V7.49571C63.75 1.47035 63.6793 0.749287 63.0396 0.258225C62.7795 0.0587305 56.8783 0.0109883 31.8534 0.0060625L0.988125 0L0.494062 0.392736ZM27.8597 10.8191C25.38 11.1844 22.8677 12.0771 20.5312 13.4229C18.9159 14.3533 18.375 14.9126 18.375 15.6517C18.375 16.3009 19.0671 17.0508 19.6663 17.0508C19.8332 17.0508 20.6867 16.6241 21.5629 16.1026C26.3038 13.2812 31.7284 12.7076 36.7858 14.493C41.3661 16.11 45.54 20.1072 47.3514 24.6117C48.9154 28.5008 49.0766 33.3642 47.7698 37.2275C45.8745 42.8295 41.2697 47.2502 35.625 48.8867C33.8648 49.3971 29.9756 49.5916 27.9384 49.2715C17.604 47.6469 10.8461 36.8905 13.683 26.5812C14.1962 24.7162 14.7593 23.4863 16.0121 21.4933C17.1591 19.6685 17.2358 19.1727 16.4713 18.519C15.5858 17.762 14.8149 18.1822 13.5199 20.1277C10.0881 25.2825 9.26606 32.6034 11.4456 38.6005C13.9641 45.5307 19.9044 50.6336 27.0469 52.0026C28.9659 52.3705 32.7216 52.3705 34.6406 52.0026C48.3401 49.3768 55.5936 34.1061 49.0472 21.6719C45.0021 13.989 36.3664 9.56549 27.8597 10.8191ZM37.6875 22.6544C37.2973 22.8232 35.2298 24.7551 32.5868 27.4205L28.1424 31.9024L26.2978 30.0939C24.7093 28.5364 24.3221 28.2535 23.5091 28.0565C21.0688 27.4648 18.7414 29.3578 18.7552 31.9229C18.7616 33.1048 19.4633 34.109 22.3421 37.0561C25.6806 40.4736 26.2935 40.9454 27.5554 41.0678C29.6001 41.2663 29.3346 41.4648 36.0681 34.7017C40.1265 30.6255 42.3493 28.2539 42.5798 27.7549C43.0841 26.6615 43.0324 25.6137 42.4155 24.4203C41.5238 22.6955 39.4134 21.9072 37.6875 22.6544ZM39.7821 25.5108C39.9707 25.6832 40.125 25.9998 40.125 26.2142C40.125 26.4727 38.1836 28.5693 34.3635 32.4368C29.8631 36.9926 28.4989 38.2695 28.1312 38.2695C27.7731 38.2695 26.9312 37.5337 24.6114 35.193C22.9344 33.501 21.5625 31.9827 21.5625 31.819C21.5625 31.3007 22.0425 30.8335 22.5752 30.8335C22.9802 30.8335 23.5594 31.3022 25.2966 33.0359C27.2336 34.9691 27.5807 35.2383 28.1351 35.2383C28.7113 35.2383 29.2044 34.7969 33.7429 30.2187C36.786 27.1488 38.8586 25.1988 39.0789 25.1982C39.2771 25.1976 39.5934 25.3384 39.7821 25.5108ZM14.1497 57.2042C13.2386 57.5809 12.9484 58.7676 13.5915 59.4858C13.9294 59.863 14.1323 59.8672 32.1562 59.8672C50.1802 59.8672 50.3831 59.863 50.721 59.4858C51.1892 58.9631 51.1562 58.0464 50.6511 57.5358L50.2397 57.1201L32.3854 57.0834C22.5656 57.0631 14.3595 57.1175 14.1497 57.2042ZM13.677 64.1951C13.1132 64.6564 13.1057 65.6154 13.6614 66.1771L14.073 66.5928H26.7043C38.8626 66.5928 39.3504 66.5793 39.7303 66.2319C40.2454 65.7609 40.2553 64.7352 39.75 64.2246C39.3825 63.8533 39.1251 63.8457 26.7396 63.8457C14.7394 63.8457 14.0826 63.8633 13.677 64.1951ZM58.875 71.4731C58.875 71.5002 57.2719 73.1405 55.3125 75.1182L51.75 78.714V75.0689V71.4238H55.3125C57.2719 71.4238 58.875 71.446 58.875 71.4731ZM76.125 84.9243C76.125 84.9514 74.5219 86.5916 72.5625 88.5693L69 92.1652V88.5201V84.875H72.5625C74.5219 84.875 76.125 84.8972 76.125 84.9243Z" fill="#232323"/>
</svg>
