<svg width="130" height="13" viewBox="0 0 130 13" fill="none" xmlns="http://www.w3.org/2000/svg">
<path d="M128.002 13C122.911 13 121.043 9.81188 119.678 7.49505C118.322 5.16832 117.489 3.9604 114.828 3.9604C111.555 3.9604 108.784 5.9703 105.852 8.08911C102.528 10.495 99.094 12.9901 94.4953 12.9901C89.1434 12.9901 87.8682 9.48515 87.0248 7.15842C86.2316 4.9604 85.86 3.9604 83.3398 3.9604C80.0564 3.9604 77.2951 5.9703 74.3632 8.08911C71.0396 10.495 67.6056 12.9901 63.0069 12.9901C57.6551 12.9901 56.3799 9.48515 55.5364 7.15842C54.7331 4.9604 54.3616 3.9604 51.8414 3.9604C48.558 3.9604 45.7967 5.9703 42.8648 8.08911C39.5412 10.495 36.1072 12.9901 31.5085 12.9901C26.1566 12.9901 24.8814 9.48515 24.038 7.15842C23.2347 4.9604 22.8632 3.9604 20.3429 3.9604C17.16 3.9604 15.0012 5.82178 12.501 7.9901C9.77987 10.3366 6.6973 13 2.00819 13C0.903684 13 0 12.1089 0 11.0198C0 9.93069 0.903684 9.0396 2.00819 9.0396C5.19116 9.0396 7.34997 7.17822 9.85016 5.0099C12.5713 2.66337 15.6438 0 20.3429 0C25.6948 0 26.97 3.50495 27.8134 5.83168C28.6167 8.0297 28.9781 9.0396 31.5085 9.0396C34.7918 9.0396 37.5531 7.0297 40.4851 4.91089C43.8086 2.49505 47.2426 0 51.8414 0C57.1932 0 58.4684 3.50495 59.3118 5.83168C60.1151 8.0297 60.4766 9.0396 62.9968 9.0396C66.2802 9.0396 69.0415 7.0297 71.9734 4.91089C75.307 2.49505 78.741 0 83.3398 0C88.6916 0 89.9668 3.50495 90.8102 5.83168C91.6135 8.0297 91.975 9.0396 94.4953 9.0396C97.7686 9.0396 100.54 7.0297 103.472 4.91089C106.795 2.49505 110.239 0 114.828 0C119.919 0 121.787 3.18812 123.152 5.50495C124.508 7.82178 125.341 9.0297 127.992 9.0297C129.096 9.0297 130 9.92079 130 11.0099C130 12.099 129.106 13 128.002 13Z" fill="#0093E5"/>
</svg>
